<?xml version="1.0" encoding="UTF-8" standalone="no"?>
<!-- Created with Inkscape (http://www.inkscape.org/) -->

<svg
   width="210mm"
   height="297mm"
   viewBox="0 0 210 297"
   version="1.1"
   id="svg1"
   xml:space="preserve"
   xmlns:xlink="http://www.w3.org/1999/xlink"
   xmlns="http://www.w3.org/2000/svg"
   xmlns:svg="http://www.w3.org/2000/svg"><defs
     id="defs1"><linearGradient
       id="linearGradient8"><stop
         style="stop-color:#4cd6e9;stop-opacity:1;"
         offset="0"
         id="stop8" /><stop
         style="stop-color:#a6ecf2;stop-opacity:1;"
         offset="1"
         id="stop9" /></linearGradient><linearGradient
       xlink:href="#linearGradient8"
       id="linearGradient9"
       x1="19.692572"
       y1="137.91612"
       x2="191.48328"
       y2="137.91612"
       gradientUnits="userSpaceOnUse" /></defs><g
     id="layer1"><path
       style="fill:url(#linearGradient9);fill-opacity:1;stroke-width:1.20804"
       d="m 25.474059,183.68772 c -3.179818,-3.1855 -5.781487,-5.88372 -5.781487,-5.99604 0,-0.52872 62.215597,-62.33602 62.839641,-62.42725 0.469735,-0.0686 6.317536,5.50766 17.140726,16.345 9.035261,9.04708 16.710951,16.44923 17.057091,16.44923 0.67332,0 43.46866,-42.57376 43.46866,-43.24358 0,-0.21921 -2.12118,-2.52529 -4.71373,-5.124616 -3.68037,-3.689978 -4.65901,-4.898503 -4.46407,-5.512708 0.21713,-0.684077 1.87765,-1.088252 12.73396,-3.099471 6.86635,-1.272044 15.73073,-2.923775 19.6986,-3.670526 5.4238,-1.020746 7.36651,-1.246433 7.82754,-0.909329 0.53696,0.392638 0.15914,2.886543 -3.03861,20.05718 -2.0085,10.78484 -3.75997,19.78378 -3.89215,19.99767 -0.60555,0.97977 -1.95348,0.0614 -6.28372,-4.28114 -2.5612,-2.5685 -4.84296,-4.67 -5.07057,-4.67 -0.22759,0 -18.82607,18.53752 -28.22856,27.81696 -9.38807,9.26521 -27.96252,27.81696 -28.14316,27.81696 -0.18063,0 -7.82241,-7.4923 -16.981731,-16.64957 -9.15932,-9.15725 -16.870371,-16.64956 -17.135681,-16.64956 -0.265306,0 -11.628339,11.14708 -25.251186,24.7713 -13.622847,13.62423 -25.045846,24.77131 -25.384443,24.77131 -0.338598,0 -3.217301,-2.60631 -6.39712,-5.79182 z"
       id="path6" /><path
       style="fill:#3a3a3a;fill-opacity:1;stroke-width:1.20804"
       d="m 152.88912,193.00208 v -39.11659 l 9.33545,-9.30928 c 5.13449,-5.12011 9.56592,-9.30928 9.84761,-9.30928 0.40872,0 0.533,9.78065 0.61534,48.42588 l 0.10316,48.42587 h -9.95078 -9.95078 z"
       id="path5" /><path
       style="fill:#3a3a3a;fill-opacity:1;stroke-width:1.20804"
       d="m 122.74978,208.46411 c -0.0628,-13.01001 0.005,-23.91828 0.14894,-24.24061 0.47323,-1.0542 18.75945,-19.13036 19.20308,-18.98251 0.29961,0.0999 0.46396,10.37554 0.53599,33.51085 l 0.10389,33.36684 h -9.93887 -9.93889 z"
       id="path4" /><path
       style="fill:#3a3a3a;fill-opacity:1;stroke-width:1.20804"
       d="m 92.382149,199.68226 c 0,-26.84093 0.0946,-32.48692 0.5473,-32.66063 0.33155,-0.12722 4.29354,3.53871 10.050661,9.29966 l 9.50336,9.50966 v 23.04234 23.04234 l -10.05066,0.10861 -10.050661,0.1086 z"
       id="path3" /><path
       style="fill:#3a3a3a;fill-opacity:1;stroke-width:1.20804"
       d="m 62.33171,204.01697 v -28.10172 l 9.430068,-9.46133 c 5.186537,-5.20373 9.663646,-9.46134 9.949132,-9.46134 0.417619,0 0.519064,7.34122 0.519064,37.56306 v 37.56304 H 72.280842 62.33171 Z"
       id="path2" /><path
       style="fill:#3a3a3a;fill-opacity:1;stroke-width:1.20804"
       d="m 32.28127,219.03991 v -13.07878 l 9.490813,-9.51531 c 5.663142,-5.67774 9.675656,-9.40105 9.949133,-9.23203 0.331368,0.20478 0.458317,6.46316 0.458317,22.59407 v 22.31082 H 42.230402 32.28127 Z"
       id="path1" /></g></svg>
