<svg width="1444" height="963" viewBox="0 0 1444 963" fill="none" xmlns="http://www.w3.org/2000/svg">
<mask id="mask0_2042_83" style="mask-type:luminance" maskUnits="userSpaceOnUse" x="0" y="0" width="1444" height="963">
<path d="M1444 0H0V962.667H1444V0Z" fill="white"/>
</mask>
<g mask="url(#mask0_2042_83)">
<path d="M396.98 1082.04C402.395 968.804 465.449 862.068 561.716 802.262C610.451 771.938 666.887 754.129 724.286 750.278C789.507 745.826 842.213 768.569 904.666 780.121C953.281 789.146 1003.82 791.312 1051.71 777.714C1101.29 763.756 1146.05 733.071 1176.98 691.917C1228.72 623.206 1220.18 536.446 1253.87 460.275C1284.32 391.324 1348.7 338.377 1422.22 321.771C1495.74 305.165 1576.61 325.381 1633.77 374.598" stroke="#F2F2F2" stroke-miterlimit="10"/>
<path d="M388.677 1082.28C393.731 970.127 455.702 864.234 550.525 804.308C599.501 773.142 656.539 754.971 714.419 751.121C731.627 749.917 747.992 750.76 763.996 752.685C808.881 758.1 850.155 773.142 896.483 782.167C905.629 783.972 914.894 785.416 924.04 786.739C964.472 792.154 1005.63 791.673 1044.97 780.482C1066.63 774.345 1087.21 764.959 1106.22 752.685C1131.01 736.681 1152.79 716.104 1170.36 692.398C1172.89 688.908 1175.42 685.419 1177.7 681.929C1216.21 623.206 1220.78 556.662 1244.01 496.375C1247.62 487.109 1251.59 477.844 1256.16 468.939C1275.17 432.117 1304.65 400.83 1340.51 377.967C1366.99 361.12 1396.95 348.846 1428.48 342.469C1450.02 338.137 1472.16 336.572 1494.06 337.535C1547.97 339.821 1601.04 356.548 1639.54 386.631" stroke="#E7EBEC" stroke-miterlimit="10"/>
<path d="M380.374 1082.4C385.067 971.331 446.196 866.52 539.454 806.354C588.791 774.586 646.31 755.814 704.792 752.083C722.12 751 738.726 751.722 754.851 753.648C800.217 759.303 841.852 774.706 888.541 784.092C897.807 785.897 907.073 787.582 916.338 788.905C957.131 794.681 998.887 794.561 1038.48 783.129C1060.26 776.872 1081.07 767.245 1100.09 754.49C1124.88 738.004 1146.3 716.826 1163.98 692.759C1166.51 689.269 1169.04 685.659 1171.32 682.17C1210.43 622.605 1219.34 558.948 1245.45 502.873C1249.42 494.209 1253.87 485.665 1258.81 477.483C1279.26 443.549 1309.59 415.15 1345.93 394.693C1372.76 379.531 1403.09 368.701 1434.97 363.046C1456.76 359.195 1479.14 357.751 1501.28 358.473C1555.79 360.037 1609.22 373.274 1645.8 398.664" stroke="#DDE4E6" stroke-miterlimit="10"/>
<path d="M372.071 1082.52C376.403 972.534 436.449 868.566 528.384 808.399C577.961 775.909 636.082 756.656 695.166 752.926C712.614 751.843 729.461 752.565 745.826 754.61C791.673 760.386 833.79 776.15 880.72 786.017C889.985 787.943 899.371 789.748 908.757 791.071C950.032 797.329 992.148 797.329 1032.1 785.656C1054 779.279 1074.94 769.411 1094.07 756.175C1118.86 739.208 1140.04 717.427 1157.73 693.12C1160.37 689.51 1162.78 686.02 1165.19 682.41C1204.9 622.123 1218.01 561.114 1247.01 509.371C1251.47 501.429 1256.28 493.607 1261.57 485.906C1283.6 454.86 1314.64 429.47 1351.58 411.299C1378.9 397.942 1409.46 388.436 1441.71 383.502C1463.73 380.133 1486.24 378.93 1508.74 379.291C1563.85 380.253 1617.64 389.88 1652.18 410.457" stroke="#D2DDE1" stroke-miterlimit="10"/>
<path d="M363.768 1082.64C367.739 973.737 426.702 870.611 517.193 810.325C567.011 777.233 625.613 757.498 685.419 753.768C703.108 752.685 719.954 753.407 736.56 755.573C782.768 761.469 825.487 777.714 872.657 787.943C882.043 789.988 891.429 791.793 900.936 793.358C942.571 799.976 985.289 800.216 1025.48 788.424C1047.62 781.926 1068.56 771.818 1087.69 758.22C1112.48 740.772 1133.3 718.39 1151.23 693.722C1153.88 690.112 1156.28 686.502 1158.69 682.892C1199 621.762 1216.33 563.641 1248.22 516.11C1253.15 508.769 1258.33 501.67 1263.98 494.69C1287.45 466.532 1319.33 444.15 1356.76 428.387C1384.44 416.714 1415.48 408.652 1447.97 404.44C1470.23 401.552 1492.98 400.469 1515.72 400.59C1571.31 400.951 1625.58 406.967 1658.19 422.731" stroke="#C7D6DB" stroke-miterlimit="10"/>
<path d="M355.344 1082.76C358.954 974.941 416.835 872.657 506.002 812.37C555.94 778.557 615.264 758.341 675.672 754.61C693.481 753.527 710.568 754.37 727.295 756.536C773.984 762.673 817.184 779.158 864.595 789.868C874.101 792.034 883.608 793.959 893.114 795.524C935.231 802.623 978.43 802.984 1018.98 790.951C1041.24 784.333 1062.42 773.984 1081.56 759.905C1106.34 741.975 1126.92 718.992 1144.85 693.962C1147.5 690.352 1150.03 686.622 1152.43 683.012C1193.35 621.161 1214.89 565.807 1249.78 522.367C1255.2 515.749 1260.73 509.251 1266.75 502.993C1291.66 477.603 1324.39 458.35 1362.41 444.872C1390.45 434.885 1421.86 428.266 1454.71 424.656C1477.21 422.25 1500.2 421.287 1523.18 421.167C1579.38 420.926 1634.13 423.333 1664.57 434.283" stroke="#BCCFD5" stroke-miterlimit="10"/>
<path d="M347.042 1082.88C350.291 976.144 407.208 874.703 494.931 814.416C545.11 779.881 605.036 759.183 666.045 755.573C683.975 754.49 701.303 755.333 718.15 757.619C765.32 763.876 808.881 780.843 856.653 791.914C866.16 794.2 875.786 796.126 885.413 797.81C927.891 805.271 971.572 805.993 1012.48 793.719C1034.87 786.98 1056.17 776.391 1075.42 761.831C1100.09 743.299 1120.42 719.714 1138.47 694.444C1141.12 690.714 1143.65 687.104 1146.05 683.373C1187.57 620.8 1213.32 568.094 1251.11 528.986C1256.88 522.969 1262.9 517.193 1269.28 511.658C1295.63 489.155 1329.08 472.79 1367.71 461.719C1396.23 453.537 1427.88 448.242 1461.09 445.354C1483.83 443.429 1507.05 442.586 1530.16 442.225C1586.84 441.263 1642.07 440.18 1670.47 446.437" stroke="#B2C8CF" stroke-miterlimit="10"/>
<path d="M338.738 1083C341.626 977.347 397.461 876.749 483.74 816.341C534.16 781.084 594.687 759.905 656.178 756.295C674.228 755.212 691.676 756.054 708.884 758.341C756.536 764.718 800.578 782.046 848.591 793.719C858.217 796.005 867.844 798.171 877.591 799.976C920.55 807.918 964.712 808.76 1005.87 796.246C1028.37 789.387 1049.79 778.557 1069.16 763.515C1093.83 744.502 1113.93 720.315 1131.98 694.684C1134.62 690.954 1137.15 687.224 1139.68 683.493C1181.91 620.078 1211.76 570.26 1252.43 535.363C1258.69 530.068 1265.06 524.894 1271.8 520.081C1299.72 500.466 1333.89 487.109 1373.12 478.325C1402 471.827 1434.13 467.976 1467.59 465.81C1490.57 464.366 1514.03 463.765 1537.38 463.043C1594.66 461.478 1650.25 456.785 1676.72 458.229" stroke="#A7C1C9" stroke-miterlimit="10"/>
<path d="M330.435 1083.24C332.962 978.671 387.714 878.915 472.669 818.507C523.33 782.528 584.339 760.868 646.551 757.378C664.721 756.295 682.41 757.258 699.738 759.544C747.872 766.162 792.395 783.851 840.649 795.885C850.396 798.291 860.143 800.578 869.89 802.383C913.21 810.686 957.853 811.769 999.368 799.013C1022.11 792.034 1043.53 780.963 1063.02 765.561C1087.69 745.946 1107.43 721.278 1125.6 695.286C1128.25 691.556 1130.77 687.705 1133.3 683.975C1176.14 619.837 1210.07 572.666 1253.87 542.102C1260.49 537.409 1267.35 532.956 1274.45 528.865C1303.81 512.139 1338.83 501.79 1378.54 495.412C1407.9 490.719 1440.27 488.192 1474.08 486.748C1497.31 485.786 1521.01 485.304 1544.6 484.342C1602.48 482.176 1658.43 473.993 1682.86 470.503" stroke="#9CBAC4" stroke-miterlimit="10"/>
<path d="M322.012 1083.36C324.178 979.995 377.847 880.84 461.478 820.433C512.379 783.611 573.99 761.59 636.804 758.1C655.095 757.138 673.024 757.98 690.473 760.387C739.087 767.125 783.972 785.175 832.586 797.69C842.333 800.217 852.201 802.503 862.068 804.429C905.869 813.213 950.994 814.416 992.75 801.541C1015.61 794.441 1037.27 783.13 1056.65 767.246C1081.32 747.15 1100.81 721.88 1118.98 695.527C1121.63 691.676 1124.27 687.826 1126.8 684.095C1170.24 619.115 1208.39 574.833 1255.08 548.48C1262.18 544.509 1269.4 540.658 1276.86 537.289C1307.66 523.33 1343.52 515.99 1383.83 512.019C1413.56 509.01 1446.41 507.927 1480.46 507.205C1503.93 506.724 1527.87 506.363 1551.7 505.28C1610.06 502.512 1666.5 490.72 1688.88 482.417" stroke="#92B3BE" stroke-miterlimit="10"/>
<path d="M313.709 1083.48C315.514 981.198 368.1 882.886 450.287 822.479C501.429 784.935 563.641 762.432 627.057 759.063C645.588 758.1 663.638 758.943 681.327 761.47C730.423 768.329 775.789 786.86 824.644 799.736C834.512 802.383 844.379 804.79 854.367 806.835C898.529 815.981 944.256 817.545 986.252 804.308C1009.24 797.088 1031.02 785.536 1050.51 769.171C1075.18 748.594 1094.31 722.722 1112.6 696.008C1115.25 692.158 1117.9 688.307 1120.42 684.456C1164.47 618.754 1206.7 577.119 1256.4 554.978C1263.98 551.608 1271.56 548.48 1279.38 545.832C1311.75 534.762 1348.33 530.43 1389.25 528.745C1419.33 527.421 1452.54 527.782 1486.96 527.662C1510.66 527.662 1534.73 527.421 1558.8 526.098C1617.76 522.728 1674.68 507.326 1695.02 494.33" stroke="#87ACB8" stroke-miterlimit="10"/>
<path d="M305.406 1083.6C306.85 982.401 358.232 884.811 439.217 824.524C490.479 786.258 553.293 763.274 617.43 759.905C636.082 758.942 654.252 759.785 672.182 762.432C721.639 769.411 767.606 788.304 816.702 801.661C826.57 804.428 836.557 806.835 846.665 809.001C891.189 818.628 937.397 820.312 979.874 806.955C1003.1 799.615 1024.88 787.822 1044.49 771.096C1069.04 750.038 1088.05 723.564 1106.34 696.489C1108.99 692.518 1111.64 688.668 1114.29 684.817C1158.93 618.273 1205.26 579.405 1258.08 561.596C1266.03 558.948 1274.09 556.542 1282.27 554.496C1316.09 546.313 1353.51 544.99 1394.9 545.591C1425.47 546.073 1458.92 547.757 1493.7 548.359C1517.64 548.84 1541.95 548.84 1566.26 547.156C1625.7 543.064 1683.1 524.172 1701.39 506.363" stroke="#7CA6B2" stroke-miterlimit="10"/>
<path d="M297.103 1083.72C298.186 983.605 348.485 886.857 428.146 826.449C479.649 787.461 543.064 763.996 607.804 760.747C626.576 759.785 644.987 760.747 663.037 763.274C712.975 770.494 759.424 789.748 808.881 803.466C818.868 806.233 828.976 808.881 839.084 811.047C884.089 821.034 930.778 822.96 973.497 809.362C996.841 801.901 1018.74 789.868 1038.48 772.66C1063.02 751.121 1081.68 723.925 1100.09 696.61C1102.73 692.639 1105.38 688.668 1108.03 684.817C1153.27 617.551 1203.81 581.451 1259.53 567.853C1267.95 565.807 1276.38 564.123 1284.92 562.799C1320.18 557.504 1358.32 559.069 1400.44 562.197C1431.37 564.363 1465.3 567.492 1500.32 568.816C1524.5 569.778 1549.05 569.899 1573.6 567.973C1633.65 563.28 1691.41 540.778 1707.77 518.155" stroke="#719FAC" stroke-miterlimit="10"/>
<path d="M288.8 1083.84C289.522 984.808 338.738 888.782 416.955 828.495C468.698 788.665 532.716 764.959 597.936 761.59C616.829 760.627 635.48 761.59 653.651 764.237C704.07 771.577 750.88 791.192 800.698 805.511C810.806 808.399 820.914 811.047 831.142 813.453C876.508 823.922 923.679 825.968 966.758 812.25C990.223 804.669 1012.36 792.395 1032.1 774.706C1056.65 752.685 1075.06 724.888 1093.47 697.211C1096.12 693.24 1098.76 689.149 1101.53 685.298C1147.5 617.19 1202.01 583.857 1260.73 574.592C1269.52 573.148 1278.42 572.185 1287.33 571.583C1324.15 569.056 1363.02 573.749 1405.61 579.164C1436.9 583.135 1471.2 587.588 1506.57 589.633C1530.88 591.077 1555.79 591.318 1580.58 589.152C1641.23 583.857 1699.35 557.745 1713.67 530.309" stroke="#6798A6" stroke-miterlimit="10"/>
<path d="M280.377 1083.96C280.738 986.011 328.751 890.707 405.764 830.42C457.628 789.868 522.367 765.681 588.189 762.432C607.202 761.469 625.974 762.432 644.505 765.2C695.406 772.66 742.697 792.756 792.756 807.437C802.864 810.445 813.092 813.213 823.441 815.619C869.288 826.449 916.94 828.856 960.26 814.777C983.966 807.196 1006.11 794.681 1025.84 776.391C1050.39 753.888 1068.44 725.49 1086.97 697.452C1089.62 693.361 1092.39 689.39 1095.03 685.298C1141.6 616.468 1200.2 585.783 1261.94 580.849C1271.2 580.127 1280.47 579.766 1289.73 579.886C1328 580.247 1367.71 587.949 1410.91 595.65C1442.68 601.306 1477.21 607.202 1512.95 609.849C1537.5 611.775 1562.65 612.136 1587.68 609.729C1648.81 603.833 1707.41 574.11 1719.68 541.981" stroke="#5C91A1" stroke-miterlimit="10"/>
<path d="M272.074 1084.2C272.074 987.335 319.004 892.753 394.693 832.586C446.798 791.192 512.018 766.644 578.563 763.395C597.696 762.432 616.708 763.515 635.36 766.283C686.742 773.984 734.515 794.32 784.814 809.482C795.042 812.611 805.391 815.499 815.74 817.906C861.948 829.217 910.201 831.744 953.762 817.545C977.588 809.843 999.97 797.088 1019.7 778.436C1044.25 755.453 1062.06 726.453 1080.71 698.054C1083.36 693.963 1086.13 689.871 1088.9 685.78C1136.07 616.227 1198.88 588.069 1263.62 587.467C1273.37 587.347 1282.99 587.708 1292.62 588.43C1332.33 591.679 1372.88 602.389 1416.56 612.376C1448.69 619.717 1483.71 627.057 1519.69 630.426C1544.48 632.833 1569.87 633.435 1595.02 630.667C1656.75 624.049 1715.71 590.837 1726.06 553.895" stroke="#518A9B" stroke-miterlimit="10"/>
<path d="M263.771 1084.32C263.41 988.538 309.136 894.678 383.502 834.632C435.727 792.515 501.67 767.486 568.816 764.357C588.069 763.395 607.322 764.478 626.094 767.366C677.958 775.187 726.091 796.005 776.752 811.528C787.1 814.657 797.449 817.665 807.918 820.312C854.607 831.985 903.222 834.752 947.264 820.312C971.21 812.491 993.713 799.495 1013.57 780.362C1038.12 756.776 1055.56 727.295 1074.34 698.535C1077.1 694.444 1079.75 690.232 1082.52 686.141C1130.29 615.746 1197.2 590.355 1264.94 594.086C1275.05 594.687 1285.16 595.65 1295.15 597.094C1336.42 603.231 1377.7 616.829 1421.98 629.343C1454.59 638.489 1489.85 647.032 1526.19 651.244C1551.22 654.132 1576.85 654.854 1602.24 651.846C1664.45 644.626 1724.02 607.924 1732.2 566.048" stroke="#478395" stroke-miterlimit="10"/>
<path d="M255.468 1084.44C254.746 989.741 299.39 896.604 372.432 836.557C424.777 793.598 491.442 768.208 559.189 765.079C578.683 764.237 597.936 765.2 617.069 768.088C669.294 776.03 718.029 797.208 768.93 813.213C779.279 816.462 789.748 819.59 800.337 822.238C847.387 834.391 896.604 837.4 940.886 822.719C965.073 814.777 987.576 801.54 1007.55 781.926C1032.1 757.859 1049.31 727.656 1068.08 698.655C1070.85 694.444 1073.49 690.352 1076.38 686.141C1124.76 615.024 1195.87 592.281 1266.51 600.343C1277.1 601.546 1287.57 603.231 1297.92 605.397C1340.63 614.302 1382.75 631.028 1427.51 645.829C1460.49 656.659 1496.1 666.647 1532.81 671.58C1558.08 674.95 1583.95 675.792 1609.58 672.543C1672.39 664.721 1732.32 624.41 1738.58 577.72" stroke="#3C7C8F" stroke-miterlimit="10"/>
<path d="M247.044 1084.56C245.961 990.945 289.402 898.408 361.241 838.603C413.826 794.801 481.093 769.05 549.442 766.042C569.056 765.2 588.55 766.162 607.804 769.17C660.51 777.353 709.726 798.893 760.868 815.379C771.337 818.748 781.806 821.876 792.515 824.764C840.047 837.279 889.624 840.528 934.268 825.607C958.575 817.545 981.318 804.067 1001.29 784.092C1025.84 759.544 1042.69 728.739 1061.58 699.498C1064.35 695.286 1067.12 691.074 1069.88 686.863C1118.86 614.903 1194.07 594.928 1267.83 607.322C1278.78 609.127 1289.73 611.534 1300.44 614.422C1344.6 626.215 1387.56 645.949 1432.93 663.037C1466.26 675.672 1502.36 686.983 1539.3 692.518C1564.81 696.369 1590.81 697.331 1616.8 693.962C1680.09 685.539 1740.5 641.617 1744.71 590.235" stroke="#317589" stroke-miterlimit="10"/>
<path d="M238.741 1084.68C237.297 992.148 279.534 900.334 350.05 840.649C402.756 796.005 470.624 769.893 539.575 766.884C559.309 766.042 579.044 767.125 598.418 770.133C651.605 778.436 701.303 800.337 752.685 817.304C763.274 820.794 773.864 824.043 784.573 826.931C832.466 839.927 882.645 843.296 927.529 828.254C951.957 820.072 974.82 806.354 994.796 785.897C1019.34 760.868 1035.95 729.461 1054.84 699.859C1057.61 695.527 1060.38 691.315 1063.27 687.103C1112.96 614.422 1192.26 596.853 1268.91 613.82C1280.35 616.347 1291.66 619.356 1302.73 622.966C1348.33 637.646 1392.02 660.269 1437.98 679.763C1471.8 694.083 1508.14 706.838 1545.44 713.095C1571.19 717.427 1597.42 718.631 1623.54 714.9C1687.43 705.755 1748.2 658.344 1750.37 602.148" stroke="#266E84" stroke-miterlimit="10"/>
<path d="M230.438 1084.8C228.633 993.351 269.547 902.139 338.979 842.574C391.685 797.088 460.395 770.615 529.948 767.727C549.803 766.884 569.658 767.967 589.272 771.096C642.941 779.519 693 801.901 744.743 819.229C755.332 822.839 766.042 826.088 776.872 829.097C825.246 842.454 875.907 846.063 921.032 830.781C945.58 822.478 968.563 808.52 988.659 787.582C1013.21 762.071 1029.45 730.062 1048.46 700.099C1051.23 695.767 1054 691.435 1056.89 687.223C1107.19 613.7 1190.7 599.019 1270.24 620.077C1282.15 623.206 1293.82 627.057 1305.26 631.268C1352.43 648.837 1396.83 674.468 1443.4 696.369C1477.57 712.373 1514.27 726.572 1551.94 733.552C1577.93 738.365 1604.4 739.689 1630.76 735.718C1695.26 725.971 1756.39 674.949 1756.63 613.94" stroke="#1C677E" stroke-miterlimit="10"/>
<path d="M222.135 1084.93C219.969 994.555 259.8 904.065 327.908 844.62C396.017 785.175 490.96 757.86 580.247 772.059C645.588 782.408 705.635 813.333 769.171 831.383C844.499 852.682 925.484 850.276 982.522 789.507C1010.56 759.665 1027.41 721.399 1050.63 687.585C1101.53 613.339 1189.25 601.306 1271.8 626.696C1334.74 646.07 1390.45 683.133 1448.93 713.216C1507.54 743.299 1573.12 767.125 1638.1 756.777C1703.08 746.428 1764.81 691.797 1762.88 625.974" stroke="#116078" stroke-miterlimit="10"/>
<path d="M238.741 1084.8C239.463 996.48 281.099 909.961 349.207 851.96C357.029 845.342 365.091 839.084 373.515 833.188C438.495 787.942 520.081 766.403 596.974 775.669C632.833 780.001 667.008 790.47 701.062 801.54C727.295 810.084 753.527 818.868 780.482 825.246C853.404 842.815 931.861 837.76 988.057 777.594C1015.73 747.992 1032.94 710.327 1056.29 677.115C1107.07 604.675 1193.59 592.281 1274.93 617.069C1290.33 621.762 1305.38 627.538 1320.18 634.036C1364.7 653.771 1406.34 680.124 1449.78 702.506C1459.64 707.68 1469.87 712.614 1480.1 717.187C1529.68 739.448 1583.35 753.888 1636.41 745.585C1700.55 735.477 1761.56 682.651 1761.44 618.513" stroke="#11677E" stroke-miterlimit="10"/>
<path d="M255.347 1084.68C258.837 998.526 302.398 915.977 370.506 859.421C378.328 852.923 386.39 846.786 394.813 841.01C459.432 796.486 539.093 773.503 613.941 779.519C648.837 782.287 681.929 790.951 714.9 800.096C740.411 807.076 765.801 814.416 791.793 819.35C862.429 833.188 938.239 825.487 993.472 765.922C1020.79 736.44 1038.36 699.498 1061.82 667.008C1112.6 596.613 1197.8 583.737 1278.06 607.683C1293.34 612.256 1308.14 617.912 1322.7 624.289C1366.63 643.663 1407.66 669.896 1450.38 692.157C1460.12 697.211 1470.11 702.145 1480.22 706.718C1529.08 728.739 1582.02 742.818 1634.49 734.755C1697.78 725.008 1758.07 673.867 1759.75 611.293" stroke="#126E85" stroke-miterlimit="10"/>
<path d="M271.953 1084.56C278.331 1000.45 323.697 921.873 391.805 866.881C399.627 860.624 407.689 854.607 415.992 848.951C480.25 805.15 558.106 780.602 630.667 783.37C664.601 784.573 696.73 791.312 728.618 798.532C753.287 804.067 777.835 809.723 802.984 813.453C871.213 823.441 944.496 813.212 998.887 754.129C1025.84 724.767 1043.77 688.547 1067.36 656.659C1118.14 588.189 1202.01 574.952 1281.07 598.056C1296.11 602.509 1310.79 608.044 1325.23 614.301C1368.67 633.314 1408.98 659.426 1451.1 681.447C1460.73 686.501 1470.59 691.315 1480.58 695.887C1528.83 717.668 1581.06 731.386 1632.8 723.564C1695.38 714.178 1754.82 664.721 1758.31 603.712" stroke="#12748B" stroke-miterlimit="10"/>
<path d="M288.559 1084.44C297.705 1002.5 344.996 927.89 413.104 874.222C420.926 868.085 428.988 862.188 437.291 856.653C501.188 813.694 576.998 787.582 647.514 787.1C680.365 786.86 711.531 791.673 742.457 796.968C766.283 801.059 790.109 805.15 814.416 807.437C880.359 813.574 950.994 800.939 1004.42 742.336C1031.02 713.095 1049.19 677.597 1073.01 646.431C1123.79 579.886 1206.34 566.168 1284.32 588.671C1299.24 593.003 1313.68 598.297 1327.88 604.555C1370.72 623.327 1410.43 649.198 1451.82 671.099C1461.33 676.153 1470.95 680.966 1480.82 685.419C1528.35 706.958 1579.98 720.315 1631 712.734C1692.73 703.589 1751.45 655.937 1756.75 596.613" stroke="#137B92" stroke-miterlimit="10"/>
<path d="M305.165 1084.32C317.199 1004.42 366.295 933.787 434.403 881.682C442.225 875.666 450.287 870.01 458.47 864.475C522.006 822.238 596.011 794.681 664.36 790.831C696.249 789.026 726.452 791.914 756.175 795.403C779.158 798.051 802.142 800.578 825.607 801.54C889.143 803.947 957.372 788.665 1009.72 730.664C1035.95 701.664 1054.48 666.887 1078.43 636.202C1129.09 571.583 1210.43 557.504 1287.21 579.164C1301.89 583.256 1316.21 588.55 1330.29 594.687C1372.52 613.098 1411.63 638.85 1452.42 660.63C1461.81 665.564 1471.32 670.377 1481.06 674.829C1527.87 696.128 1578.77 709.124 1629.19 701.904C1690.08 693.12 1748.08 647.153 1755.18 589.393" stroke="#138298" stroke-miterlimit="10"/>
<path d="M321.771 1084.2C336.693 1006.35 387.594 939.683 455.702 889.143C463.524 883.367 471.586 877.711 479.769 872.417C542.944 830.902 615.024 801.781 681.327 794.681C712.253 791.312 741.374 792.395 770.133 793.959C792.395 795.163 814.416 796.125 837.039 795.644C898.168 794.32 963.87 776.391 1015.37 718.992C1041.12 690.112 1060.02 656.057 1084.2 625.974C1134.86 563.16 1214.89 548.72 1290.57 569.778C1305.14 573.749 1319.21 578.924 1333.05 584.94C1374.81 602.99 1413.19 628.621 1453.39 650.161C1462.53 655.095 1471.92 659.788 1481.54 664.24C1527.63 685.419 1577.93 697.933 1627.63 690.954C1687.67 682.531 1744.95 638.248 1753.86 582.173" stroke="#13899F" stroke-miterlimit="10"/>
<path d="M338.377 1084.08C356.066 1008.39 408.893 945.7 477.001 896.483C484.823 890.828 492.765 885.413 500.948 880.118C563.762 839.325 633.916 808.76 698.054 798.412C728.017 793.478 756.175 792.636 783.851 792.395C805.271 792.154 826.57 791.553 848.35 789.627C907.193 784.453 970.248 763.996 1020.79 707.079C1046.18 678.319 1065.43 644.987 1089.86 615.625C1140.4 554.737 1219.34 539.936 1293.7 560.152C1308.02 564.002 1321.98 569.056 1335.7 574.953C1376.85 592.762 1414.52 618.152 1454.11 639.572C1463.13 644.505 1472.4 649.198 1481.78 653.53C1527.15 674.468 1576.73 686.622 1625.82 679.883C1685.03 671.701 1741.58 629.223 1752.29 574.712" stroke="#148FA5" stroke-miterlimit="10"/>
<path d="M354.983 1083.84C375.56 1010.2 430.192 951.475 498.3 903.823C506.122 898.408 514.064 892.993 522.247 887.819C584.7 847.868 652.929 815.739 715.021 802.021C744.021 795.523 771.096 792.876 797.69 790.59C818.267 788.785 838.723 786.739 859.661 783.49C916.098 774.585 976.625 751.481 1026.32 695.165C1051.35 666.646 1070.85 633.916 1095.51 605.156C1145.93 546.193 1223.67 531.031 1296.95 550.525C1311.03 554.255 1324.87 559.068 1338.35 564.844C1379.02 582.293 1415.96 607.563 1454.95 628.862C1463.85 633.675 1473 638.368 1482.27 642.7C1526.91 663.397 1575.89 675.19 1624.26 668.692C1682.62 660.87 1738.46 620.077 1750.97 567.131" stroke="#1496AB" stroke-miterlimit="10"/>
<path d="M371.71 1083.72C395.054 1012.12 451.611 957.372 519.72 911.164C527.541 905.869 535.483 900.695 543.546 895.641C605.638 856.412 671.941 822.719 731.867 805.752C759.785 797.81 786.017 793.117 811.528 789.026C831.263 785.777 850.877 782.167 870.973 777.474C925.002 764.839 983.003 739.087 1031.74 683.373C1056.41 654.974 1076.26 622.966 1101.05 594.928C1151.35 537.89 1227.88 522.247 1299.96 541.019C1313.92 544.629 1327.52 549.322 1340.87 554.977C1380.95 572.065 1417.29 597.214 1455.55 618.273C1464.34 623.086 1473.24 627.659 1482.39 631.991C1526.31 652.447 1574.68 663.879 1622.33 657.622C1679.85 650.041 1735.09 610.932 1749.29 559.791" stroke="#149DB2" stroke-miterlimit="10"/>
<path d="M388.316 1083.6C414.548 1014.17 472.91 963.389 541.019 918.625C548.84 913.45 556.782 908.396 564.724 903.463C626.455 864.956 690.954 829.819 748.714 809.603C775.669 800.096 800.818 793.598 825.246 787.582C844.259 782.889 862.91 777.714 882.284 771.698C933.907 755.332 989.501 726.934 1037.27 671.701C1061.58 643.422 1081.68 612.136 1106.71 584.7C1156.88 529.467 1232.21 513.583 1303.21 531.512C1316.93 535.002 1330.41 539.575 1343.52 545.11C1383.11 561.836 1418.73 586.866 1456.39 607.804C1465.06 612.617 1473.84 617.19 1482.87 621.401C1526.19 641.617 1573.72 652.688 1620.77 646.792C1677.45 639.572 1731.96 602.148 1747.96 552.571" stroke="#15A4B8" stroke-miterlimit="10"/>
<path d="M404.922 1083.48C433.922 1016.09 494.209 969.285 562.318 926.086C570.139 921.152 578.081 916.218 586.023 911.285C647.393 873.5 709.967 836.919 765.561 813.333C791.553 802.263 815.74 793.839 839.084 786.017C857.255 779.88 875.184 773.262 893.595 765.681C942.812 745.586 995.879 714.66 1042.69 659.908C1066.63 631.87 1087.09 601.185 1112.24 574.471C1162.3 521.164 1236.42 504.798 1306.22 522.126C1319.82 525.496 1333.05 529.948 1345.93 535.363C1384.92 551.849 1419.93 576.758 1457 597.455C1465.54 602.148 1474.08 606.721 1482.99 610.932C1525.59 630.908 1572.52 641.618 1618.84 635.962C1674.68 629.103 1728.47 593.364 1746.28 545.471" stroke="#15AABF" stroke-miterlimit="10"/>
<path d="M421.528 1083.36C453.416 1018.02 515.508 975.181 583.617 933.425C591.438 928.612 599.38 923.919 607.202 919.106C668.211 882.164 728.859 843.897 782.407 817.183C807.437 804.548 830.661 794.32 852.923 784.453C870.251 776.872 887.338 768.689 904.907 759.784C951.837 735.958 1002.26 702.385 1048.1 648.235C1071.69 620.318 1092.39 590.355 1117.78 564.243C1167.71 512.74 1240.64 496.134 1309.35 512.62C1322.7 515.869 1335.82 520.08 1348.58 525.495C1387.08 541.62 1421.38 566.409 1457.72 586.865C1466.02 591.558 1474.56 596.011 1483.23 600.222C1525.1 620.077 1571.43 630.426 1617.04 624.891C1672.03 618.272 1725.1 584.338 1744.71 538.01" stroke="#16B1C5" stroke-miterlimit="10"/>
<path d="M438.134 1083.24C472.79 1020.07 536.807 981.198 604.916 940.886C612.737 936.314 620.559 931.621 628.501 926.928C689.269 890.707 747.871 850.997 799.254 820.914C823.32 806.835 845.462 794.561 866.64 782.889C883.246 773.743 899.371 764.117 916.218 753.768C960.741 726.332 1008.63 689.991 1053.64 636.443C1076.86 608.646 1097.92 579.405 1123.43 553.894C1173.25 504.317 1244.97 487.35 1312.48 503.114C1325.71 506.122 1338.59 510.334 1351.1 515.628C1389.01 531.392 1422.7 556.06 1458.44 576.397C1466.62 581.09 1475.05 585.542 1483.59 589.633C1524.74 609.248 1570.35 619.235 1615.35 613.941C1669.62 607.683 1721.85 575.434 1743.27 530.67" stroke="#16B8CC" stroke-miterlimit="10"/>
<path d="M454.74 1083.12C492.284 1021.99 558.106 987.094 626.215 948.347C634.036 943.894 641.858 939.442 649.68 934.749C710.087 899.251 766.764 858.097 816.101 824.644C839.084 809.001 860.383 794.922 880.479 781.324C896.243 770.735 911.525 759.544 927.529 747.751C969.646 716.585 1015.01 677.597 1059.05 624.53C1081.92 596.853 1103.22 568.334 1129.09 543.545C1178.79 495.773 1249.3 478.445 1315.6 493.487C1328.6 496.375 1341.36 500.466 1353.75 505.64C1391.17 521.163 1424.15 545.591 1459.28 565.687C1467.34 570.259 1475.53 574.712 1483.95 578.803C1524.38 598.177 1569.39 607.803 1613.67 602.749C1667.1 596.733 1718.6 566.289 1741.83 523.209" stroke="#16BFD2" stroke-miterlimit="10"/>
<path d="M471.346 1082.88C511.778 1023.8 579.405 992.87 647.514 955.567C655.335 951.235 663.157 946.903 670.979 942.45C731.025 907.674 785.777 864.956 832.947 828.374C854.968 811.167 875.184 795.162 894.317 779.76C909.239 767.726 923.799 755.091 938.841 741.855C978.671 707.078 1021.51 665.323 1064.59 612.857C1087.09 585.421 1108.63 557.504 1134.74 533.317C1184.32 487.35 1253.63 469.781 1318.85 483.98C1331.61 486.748 1344.24 490.719 1356.4 495.773C1393.22 510.935 1425.47 535.242 1460 555.218C1467.95 559.79 1476.01 564.122 1484.31 568.214C1524.02 587.347 1568.42 596.612 1611.99 591.919C1664.57 586.264 1715.35 557.504 1740.38 515.989" stroke="#17C5D8" stroke-miterlimit="10"/>
<path d="M487.952 1082.76C531.151 1025.84 600.704 998.887 668.933 963.028C676.755 958.937 684.576 954.725 692.278 950.273C751.963 916.339 804.789 872.056 849.794 832.105C870.852 813.333 890.106 795.404 908.035 778.076C922.114 764.478 935.832 750.399 950.152 735.718C987.576 697.212 1027.89 652.809 1070 600.945C1092.02 573.629 1113.93 546.434 1140.28 522.969C1189.62 478.807 1257.96 460.877 1321.86 474.475C1334.5 477.122 1346.89 480.852 1358.92 485.786C1395.14 500.587 1426.79 524.774 1460.73 544.629C1468.55 549.202 1476.37 553.534 1484.55 557.505C1523.54 576.397 1567.22 585.302 1610.18 580.849C1661.92 575.555 1711.98 548.48 1738.82 508.649" stroke="#17CCDF" stroke-miterlimit="10"/>
<path d="M504.558 1082.64C550.645 1027.77 621.883 1004.78 690.232 970.368C698.054 966.397 705.875 962.305 713.577 957.973C772.901 924.761 823.922 879.035 866.761 835.715C886.857 815.378 905.027 795.644 921.994 776.39C935.231 761.349 948.227 745.705 961.584 729.701C996.721 687.584 1034.39 640.414 1075.66 589.032C1097.32 561.836 1119.46 535.363 1146.05 512.499C1195.27 470.262 1262.42 451.972 1325.23 464.727C1337.63 467.254 1349.9 470.864 1361.69 475.677C1397.43 490.238 1428.36 514.184 1461.57 533.798C1469.15 538.371 1476.97 542.583 1484.91 546.554C1523.3 565.205 1566.26 573.749 1608.5 569.537C1659.4 564.483 1708.73 539.213 1737.37 500.947" stroke="#17D3E5" stroke-miterlimit="10"/>
<path d="M521.164 1082.52C570.019 1029.81 643.182 1010.8 711.531 977.829C719.353 974.098 727.174 970.127 734.755 965.916C793.719 933.426 842.815 886.135 883.487 839.686C902.62 817.906 919.708 796.125 935.712 775.067C948.106 758.581 960.26 741.374 972.775 723.925C1005.63 678.078 1040.64 628.381 1080.95 577.48C1102.25 550.525 1124.76 524.533 1151.47 502.392C1200.45 461.839 1266.51 443.428 1328.12 455.462C1340.39 457.868 1352.43 461.358 1364.1 466.051C1399.24 480.25 1429.56 504.076 1462.17 523.57C1469.63 528.023 1477.33 532.355 1485.15 536.205C1522.82 554.737 1565.06 562.799 1606.69 558.828C1656.75 554.135 1705.36 530.55 1735.81 493.848" stroke="#18DAEC" stroke-miterlimit="10"/>
<path d="M537.77 1082.4C589.513 1031.74 664.481 1016.7 732.83 985.289C740.652 981.679 748.353 977.829 755.934 973.737C814.536 941.969 861.707 893.234 900.334 843.416C918.384 820.072 934.629 796.366 949.43 773.503C961.102 755.453 972.414 736.921 983.966 718.029C1014.41 668.572 1046.9 616.107 1086.25 565.807C1107.19 538.973 1129.93 513.703 1156.88 492.284C1205.74 453.536 1270.6 434.764 1331.13 446.076C1343.16 448.362 1354.95 451.731 1366.51 456.304C1401.16 470.142 1430.76 493.848 1462.77 513.222C1470.11 517.674 1477.57 521.886 1485.27 525.616C1522.22 543.907 1563.85 551.608 1604.77 547.878C1653.98 543.425 1701.99 521.645 1734.12 486.628" stroke="#18E0F2" stroke-miterlimit="10"/>
<path d="M554.376 1082.28C608.887 1033.66 685.78 1022.59 754.129 992.63C761.951 989.14 769.652 985.53 777.233 981.439C835.474 950.513 880.72 900.214 917.181 847.147C934.268 822.238 949.43 796.727 963.268 771.938C974.098 752.444 984.567 732.349 995.397 712.012C1023.68 658.825 1053.52 603.712 1091.9 554.015C1112.48 527.301 1135.47 502.753 1162.66 481.935C1211.28 444.993 1275.05 425.98 1334.38 436.569C1346.29 438.615 1357.84 441.984 1369.27 446.437C1403.33 460.034 1432.33 483.499 1463.61 502.632C1470.83 507.085 1478.17 511.176 1485.76 514.906C1521.98 532.956 1563.01 540.297 1603.2 536.927C1651.58 532.836 1698.87 512.74 1732.8 479.288" stroke="#19E7F9" stroke-miterlimit="10"/>
<path d="M570.982 1082.16C634.999 1030.29 725.49 1027.41 798.412 989.381C883.367 944.978 937.156 854.006 976.986 770.374C1027.29 665.083 1070 542.944 1168.2 471.587C1226.32 429.35 1304.89 410.096 1371.8 436.449C1413.07 452.694 1446.41 484.342 1486 504.197C1564.21 543.426 1665.77 530.069 1731.24 471.948" stroke="#19EEFF" stroke-miterlimit="10"/>
</g>
</svg>
