<svg width="2405" height="1201" viewBox="0 0 2405 1201" fill="none" xmlns="http://www.w3.org/2000/svg">
<path d="M273.966 1195.69C282.375 1019.12 380.836 852.779 530.845 759.313C606.884 711.91 694.988 684.248 784.311 678.155C885.941 671.209 968.195 706.67 1065.56 724.705C1141.36 738.719 1220.08 742.131 1294.9 720.927C1372.28 699.115 1441.98 651.346 1490.36 587.127C1571.03 480.013 1557.75 344.749 1610.27 225.815C1657.79 118.336 1758.21 35.7157 1872.87 9.88167C1987.54 -15.9524 2113.67 15.4872 2202.75 92.2582" stroke="#DFDFDF" stroke-miterlimit="10"/>
<path d="M260.928 1195.93C268.727 1021.07 365.483 855.825 513.419 762.481C589.824 713.86 678.781 685.588 769.079 679.617C795.888 677.789 821.478 679.008 846.337 681.933C916.284 690.463 980.625 713.86 1053.01 727.873C1067.27 730.676 1081.65 732.991 1096.03 734.941C1159.03 743.349 1223.25 742.74 1284.66 725.193C1318.42 715.566 1350.59 700.943 1380.2 681.811C1418.83 656.952 1452.71 624.781 1480.25 587.858C1484.27 582.496 1488.05 577.012 1491.7 571.529C1551.66 479.891 1558.97 376.189 1595.16 282.236C1600.76 267.735 1606.98 253.356 1614.17 239.342C1643.78 181.946 1689.84 133.081 1745.65 97.4984C1786.84 71.1769 1833.64 52.1669 1882.87 42.1745C1916.38 35.4723 1950.99 33.0351 1985.23 34.3755C2069.43 37.9094 2152.05 63.9872 2212.13 111.025" stroke="#DFDFDF" stroke-miterlimit="10"/>
<path d="M248.011 1196.18C255.322 1023.01 350.616 859.48 496.115 765.649C573.008 716.175 662.696 686.928 753.968 680.957C781.021 679.251 806.855 680.348 832.08 683.516C902.758 692.29 967.83 716.296 1040.58 730.919C1054.96 733.844 1069.46 736.403 1083.96 738.475C1147.57 747.492 1212.64 747.248 1274.43 729.335C1308.43 719.587 1340.84 704.476 1370.45 684.613C1409.08 658.901 1442.47 625.877 1470.13 588.467C1474.15 582.983 1478.05 577.499 1481.71 571.894C1542.64 479.037 1556.65 379.723 1597.23 292.228C1603.57 278.702 1610.39 265.419 1618.19 252.502C1650.12 199.615 1697.4 155.381 1754.06 123.454C1795.98 99.8131 1843.26 82.8748 1892.98 74.1009C1926.86 68.1299 1961.83 65.9364 1996.44 66.9113C2081.5 69.4703 2164.85 89.9426 2221.76 129.547" stroke="#DFDFDF" stroke-miterlimit="10"/>
<path d="M234.972 1196.42C241.674 1024.96 335.383 862.771 478.689 768.818C555.948 718.246 646.61 688.269 738.857 682.298C766.154 680.592 792.353 681.811 817.822 684.979C889.231 693.997 955.035 718.612 1028.27 733.966C1042.77 737.013 1057.4 739.694 1072.02 741.887C1136.36 751.636 1202.16 751.636 1264.43 733.479C1298.68 723.486 1331.21 708.132 1361.07 687.538C1399.7 661.095 1432.72 627.096 1460.38 589.076C1464.4 583.593 1468.3 577.987 1471.96 572.382C1533.86 478.307 1554.34 383.257 1599.55 302.465C1606.49 290.035 1613.93 277.849 1622.33 265.907C1656.58 217.407 1705.08 177.925 1762.71 149.654C1805.24 128.694 1853.01 113.949 1903.22 106.272C1937.46 101.032 1972.68 99.0823 2007.77 99.6916C2093.68 101.276 2177.64 116.264 2231.51 148.313" stroke="#DFDFDF" stroke-miterlimit="10"/>
<path d="M221.933 1196.54C228.026 1026.79 320.151 865.939 461.263 771.864C538.887 720.196 630.403 689.366 723.625 683.639C751.165 681.933 777.609 683.151 803.321 686.441C875.461 695.703 941.996 720.927 1015.6 736.891C1030.22 740.059 1044.97 742.984 1059.83 745.299C1124.78 755.657 1191.32 756.023 1254.2 737.5C1288.68 727.386 1321.46 711.544 1351.32 690.341C1389.95 663.045 1422.48 628.193 1450.27 589.686C1454.29 584.08 1458.19 578.475 1461.97 572.747C1524.85 477.454 1551.9 386.791 1601.62 312.579C1609.29 301.124 1617.34 290.035 1626.23 279.19C1662.79 235.199 1712.51 200.347 1771 175.731C1814.14 157.453 1862.52 144.901 1913.21 138.321C1947.94 133.812 1983.4 132.106 2018.86 132.35C2105.62 132.959 2190.32 142.342 2241.01 166.836" stroke="#DFDFDF" stroke-miterlimit="10"/>
<path d="M209.016 1196.79C214.621 1028.74 305.041 869.229 443.959 775.032C521.949 722.268 614.318 690.706 708.515 684.979C736.177 683.273 762.986 684.491 789.063 687.903C861.935 697.408 929.201 723.242 1003.29 739.937C1018.04 743.227 1032.9 746.274 1047.89 748.833C1113.45 759.922 1180.84 760.531 1244.08 741.765C1278.81 731.407 1311.72 715.322 1341.69 693.265C1380.32 665.238 1412.37 629.411 1440.28 590.416C1444.3 584.689 1448.32 579.084 1452.1 573.234C1515.95 476.722 1549.58 390.324 1603.81 322.815C1612.22 312.457 1620.87 302.342 1630.38 292.594C1669.25 253.111 1720.19 222.89 1779.53 201.931C1823.28 186.455 1872.27 175.975 1923.45 170.491C1958.54 166.714 1994.37 165.251 2030.19 165.129C2117.81 164.764 2203.11 168.541 2250.64 185.602" stroke="#DFDFDF" stroke-miterlimit="10"/>
<path d="M195.977 1197.03C200.974 1030.69 289.809 872.398 426.534 778.201C504.889 724.34 598.233 692.047 693.283 686.442C721.188 684.736 748.241 686.076 774.562 689.61C848.165 699.359 916.162 725.802 990.618 743.228C1005.48 746.762 1020.47 749.808 1035.58 752.489C1101.87 764.187 1169.99 765.162 1233.73 746.03C1268.7 735.551 1301.85 718.978 1331.82 696.312C1370.33 667.432 1402.01 630.752 1430.16 591.148C1434.31 585.421 1438.21 579.571 1441.98 573.844C1506.81 476.113 1546.9 394.102 1605.76 333.051C1614.78 323.668 1624.16 314.651 1634.15 306.12C1675.34 271.025 1727.5 245.557 1787.7 228.253C1832.17 215.458 1881.65 207.171 1933.32 202.784C1968.78 199.738 2004.97 198.519 2041.04 197.91C2129.51 196.448 2215.54 194.742 2259.9 204.368" stroke="#DFDFDF" stroke-miterlimit="10"/>
<path d="M182.938 1197.27C187.447 1032.64 274.454 875.688 409.108 781.369C487.829 726.289 582.025 693.387 678.05 687.781C706.199 686.197 733.496 687.416 760.183 691.072C834.517 701.064 903.123 728.117 978.066 746.152C993.055 749.808 1008.17 753.098 1023.4 755.9C1090.3 768.208 1159.27 769.549 1223.49 750.051C1258.71 739.328 1291.97 722.389 1322.2 699.114C1360.7 669.381 1391.9 631.848 1420.17 591.757C1424.31 585.908 1428.21 580.058 1432.11 574.209C1497.92 475.382 1544.47 397.636 1607.95 343.165C1617.7 334.879 1627.57 326.836 1638.17 319.403C1681.68 288.816 1735.05 267.978 1796.23 254.33C1841.31 244.216 1891.28 238.123 1943.55 234.833C1979.38 232.639 2015.94 231.542 2052.37 230.567C2141.7 228.13 2228.46 220.941 2269.65 223.012" stroke="#DFDFDF" stroke-miterlimit="10"/>
<path d="M170.021 1197.39C173.921 1034.35 259.344 878.734 391.804 784.537C470.768 728.36 566.062 694.606 663.061 689.122C691.455 687.538 718.995 688.878 746.047 692.534C821.112 702.77 890.45 730.432 965.88 749.198C980.991 752.976 996.223 756.388 1011.58 759.313C1079.09 772.351 1148.79 773.936 1213.5 754.195C1248.96 743.349 1282.47 726.045 1312.69 701.917C1351.08 671.452 1381.91 632.823 1410.3 592.244C1414.44 586.395 1418.46 580.424 1422.36 574.575C1489.14 474.529 1542.15 401.048 1610.39 353.279C1620.75 345.968 1631.35 339.022 1642.56 332.685C1688.38 306.486 1742.97 290.4 1805 280.408C1850.7 272.974 1901.27 269.075 1954.03 266.882C1990.22 265.419 2027.15 264.566 2063.95 263.226C2154.12 259.814 2241.5 247.019 2279.64 241.657" stroke="#DFDFDF" stroke-miterlimit="10"/>
<path d="M156.982 1197.64C160.394 1036.42 243.989 881.903 374.5 787.706C453.83 730.311 549.977 695.946 647.951 690.585C676.588 689 704.371 690.341 731.668 694.119C807.464 704.598 877.533 732.87 953.329 752.245C968.561 756.145 983.915 759.8 999.391 762.847C1067.63 776.495 1138.07 778.567 1203.26 758.338C1238.97 747.249 1272.6 729.579 1302.94 704.842C1341.33 673.524 1371.67 634.042 1400.18 592.976C1404.33 587.005 1408.35 581.034 1412.37 575.063C1480.12 473.798 1539.47 404.582 1612.46 363.516C1623.55 357.301 1634.76 351.33 1646.46 346.09C1694.6 324.399 1750.41 312.944 1813.29 306.608C1859.59 301.855 1910.77 300.149 1964.03 299.053C2000.58 298.321 2037.87 297.712 2075.04 296.006C2166.07 291.619 2254.17 273.219 2289.02 260.423" stroke="#DFDFDF" stroke-miterlimit="10"/>
<path d="M144.065 1197.88C146.868 1038.25 228.879 885.071 357.074 790.874C436.77 732.382 533.77 697.287 632.719 691.925C661.478 690.341 689.749 691.803 717.289 695.581C793.816 706.304 864.616 735.185 940.9 755.291C956.254 759.435 971.73 763.09 987.328 766.381C1056.18 780.638 1127.47 783.075 1193.15 762.481C1229.1 751.27 1262.97 733.235 1293.44 707.767C1331.82 675.718 1361.8 635.261 1390.31 593.707C1394.46 587.614 1398.48 581.643 1402.5 575.672C1471.23 473.188 1537.03 408.36 1614.66 373.874C1626.35 368.634 1638.3 363.759 1650.6 359.616C1701.05 342.434 1758.08 335.61 1821.82 333.051C1868.73 331.101 1920.52 331.467 1974.26 331.467C2011.18 331.467 2048.84 331.101 2086.37 329.03C2178.25 323.668 2266.97 299.784 2298.77 279.433" stroke="#DFDFDF" stroke-miterlimit="10"/>
<path d="M131.026 1198.13C133.22 1040.2 213.524 888.117 339.648 794.042C419.709 734.332 517.684 698.627 617.486 693.265C646.489 691.681 675.003 693.143 702.787 697.165C780.046 708.132 851.577 737.622 928.226 758.338C943.702 762.603 959.3 766.502 975.02 769.792C1044.6 784.781 1116.5 787.462 1182.67 766.624C1218.86 755.291 1252.86 736.769 1283.44 710.569C1321.83 677.667 1351.32 636.357 1379.96 594.194C1384.1 588.101 1388.24 582.008 1392.26 575.915C1461.97 472.213 1534.23 411.65 1616.48 383.744C1628.91 379.601 1641.34 375.823 1654.26 372.655C1707.02 359.86 1765.27 357.788 1829.98 358.885C1877.63 359.616 1929.9 362.175 1984.13 363.15C2021.42 363.881 2059.44 363.881 2097.34 361.2C2190.07 354.863 2279.52 325.374 2308.15 297.59" stroke="#DFDFDF" stroke-miterlimit="10"/>
<path d="M117.987 1198.37C119.693 1042.15 198.17 891.286 322.222 797.211C402.527 736.282 501.477 699.846 602.376 694.728C631.622 693.266 660.38 694.728 688.53 698.749C766.398 709.96 838.782 739.938 915.918 761.507C931.516 765.893 947.236 769.915 963.077 773.449C1033.27 789.047 1106.02 792.093 1172.67 770.89C1209.11 759.313 1243.35 740.547 1273.94 713.616C1312.32 679.983 1341.33 637.698 1370.09 595.048C1374.23 588.833 1378.37 582.74 1382.52 576.525C1453.19 471.605 1531.79 415.306 1618.8 394.103C1631.84 390.934 1645 388.253 1658.4 386.182C1713.48 377.895 1772.95 380.454 1838.51 385.207C1886.77 388.619 1939.53 393.371 1994.25 395.443C2031.9 396.905 2070.29 397.149 2108.55 394.103C2202.14 386.791 2292.31 351.696 2317.78 316.479" stroke="#DFDFDF" stroke-miterlimit="10"/>
<path d="M105.07 1198.49C106.167 1043.97 182.938 894.21 305.041 800.257C385.711 738.231 485.513 701.064 587.387 695.946C616.877 694.484 645.879 695.946 674.394 700.089C752.993 711.544 826.108 742.131 903.611 764.431C919.33 768.94 935.172 773.083 951.136 776.739C1021.94 792.946 1095.54 796.358 1162.68 774.789C1199.36 763.091 1233.73 743.837 1264.56 716.297C1302.82 681.811 1331.46 638.673 1360.34 595.413C1364.48 589.198 1368.62 582.983 1372.89 576.769C1444.54 470.63 1529.6 418.474 1621.24 404.095C1635.01 401.901 1648.78 400.317 1662.79 399.342C1720.19 395.443 1780.87 402.754 1847.28 411.162C1896.15 417.255 1949.52 424.201 2004.73 427.37C2042.75 429.563 2081.5 430.051 2120.13 426.639C2214.57 418.352 2305.35 377.651 2327.65 334.879" stroke="#DFDFDF" stroke-miterlimit="10"/>
<path d="M92.0316 1198.74C92.6409 1045.92 167.584 897.257 287.615 803.426C368.529 740.181 469.428 702.405 572.155 697.287C601.888 695.825 631.135 697.287 659.893 701.552C739.223 713.25 813.07 744.446 891.059 767.356C906.901 771.986 922.864 776.373 938.95 780.151C1010.48 797.089 1084.81 800.745 1152.32 778.932C1189.25 766.99 1223.86 747.493 1254.69 719.1C1293.07 684.004 1321.1 639.77 1350.1 596.022C1354.24 589.686 1358.51 583.349 1362.65 577.134C1435.28 469.777 1526.67 421.886 1623.06 414.209C1637.57 413.112 1651.95 412.503 1666.45 412.625C1726.16 413.234 1788.06 425.176 1855.33 437.24C1904.8 446.014 1958.79 455.154 2014.47 459.419C2052.86 462.465 2091.98 463.074 2130.97 459.297C2226.39 450.036 2317.78 403.851 2336.91 353.523" stroke="#DFDFDF" stroke-miterlimit="10"/>
<path d="M79.1142 1198.98C79.1142 1047.87 152.229 900.304 270.311 806.594C351.468 742.009 453.342 703.745 557.044 698.749C586.899 697.287 616.511 698.871 645.635 703.258C725.697 715.2 800.274 747.005 878.629 770.646C894.593 775.52 910.678 779.907 926.885 783.929C999.026 801.476 1074.09 805.498 1142.21 783.319C1179.38 771.255 1214.23 751.392 1245.06 722.268C1283.44 686.32 1310.98 641.11 1340.11 596.997C1344.37 590.661 1348.52 584.202 1352.78 577.987C1426.38 469.411 1524.24 425.664 1625.26 424.689C1640.37 424.567 1655.36 425.055 1670.47 426.273C1732.49 431.269 1795.62 447.964 1863.74 463.684C1913.94 475.138 1968.41 486.471 2024.59 491.833C2063.34 495.611 2102.82 496.464 2142.06 492.199C2238.33 481.963 2330.33 430.173 2346.42 372.412" stroke="#DFDFDF" stroke-miterlimit="10"/>
<path d="M66.0757 1199.22C65.4664 1049.82 136.876 903.35 252.885 809.763C334.287 743.959 437.257 705.086 541.934 700.09C572.033 698.627 601.889 700.212 631.257 704.72C712.049 716.906 787.236 749.321 866.2 773.571C882.285 778.567 898.493 783.197 914.822 787.219C987.571 805.376 1063.49 809.763 1132.1 787.341C1169.51 775.033 1204.6 754.804 1235.55 725.071C1273.94 688.391 1301.11 642.207 1330.24 597.485C1334.5 591.026 1338.65 584.568 1343.03 578.231C1417.61 468.436 1521.92 428.832 1627.57 434.681C1643.42 435.534 1659.01 437.119 1674.73 439.434C1739.07 448.939 1803.42 470.264 1872.51 489.64C1923.32 503.897 1978.4 517.302 2035.07 523.76C2074.19 528.269 2114.03 529.366 2153.64 524.735C2250.76 513.524 2343.49 456.129 2356.41 390.934" stroke="#DFDFDF" stroke-miterlimit="10"/>
<path d="M53.0368 1199.34C51.9401 1051.65 121.4 906.274 235.459 812.809C317.227 745.786 421.05 706.182 526.702 701.43C557.045 700.089 587.266 701.673 616.877 706.182C698.401 718.612 774.319 751.636 853.649 776.617C869.856 781.735 886.185 786.487 902.636 790.752C976.117 809.64 1052.77 814.271 1121.74 791.483C1159.39 779.054 1194.61 758.46 1225.68 727.873C1263.95 690.341 1290.76 643.303 1320 598.094C1324.27 591.513 1328.53 585.055 1332.92 578.596C1408.35 467.583 1519.24 432.244 1629.52 444.795C1645.97 446.623 1662.3 449.304 1678.51 452.716C1745.05 466.73 1810.73 492.686 1880.67 515.717C1932.1 532.655 1987.67 548.253 2044.94 555.809C2084.42 561.049 2124.64 562.389 2164.6 557.393C2262.58 545.207 2356.04 482.206 2365.67 409.578" stroke="#DFDFDF" stroke-miterlimit="10"/>
<path d="M40.1196 1199.59C38.4136 1053.6 106.167 909.321 218.155 815.977C300.166 747.736 404.965 707.523 511.591 702.771C542.178 701.43 572.642 703.014 602.62 707.645C684.874 720.318 761.523 753.951 841.219 779.663C857.548 784.903 873.999 789.9 890.572 794.165C964.662 813.662 1042.04 818.658 1111.62 795.505C1149.52 782.832 1184.98 761.872 1216.06 730.676C1254.32 692.413 1280.64 644.4 1310.01 598.703C1314.27 592.123 1318.54 585.542 1322.93 579.084C1399.33 466.852 1516.68 435.656 1631.59 455.032C1648.78 457.956 1665.71 461.612 1682.41 466.121C1751.26 484.522 1818.16 515.23 1888.96 541.917C1940.99 561.536 1997.17 579.328 2054.93 587.98C2094.78 593.951 2135.36 595.535 2175.69 590.173C2274.52 577.012 2368.6 508.528 2375.18 428.345" stroke="#DFDFDF" stroke-miterlimit="10"/>
<path d="M27.0809 1199.83C24.8875 1055.55 90.6912 912.367 200.73 819.145C282.862 749.564 388.879 708.863 496.359 704.111C527.067 702.77 557.897 704.476 588.118 709.107C671.104 722.024 748.485 756.266 828.668 782.588C845.118 787.949 861.691 793.068 878.386 797.576C953.085 817.805 1031.32 823.045 1101.39 799.648C1139.53 786.853 1175.11 765.527 1206.31 733.6C1244.57 694.484 1270.41 645.619 1299.9 599.312C1304.16 592.61 1308.55 586.03 1312.93 579.449C1390.31 465.999 1514.24 438.824 1633.67 465.146C1651.58 469.045 1669.01 473.92 1686.43 479.403C1757.6 502.313 1825.72 537.652 1897.37 567.995C1950.01 590.295 2006.8 610.28 2065.05 620.028C2105.26 626.73 2146.2 628.558 2186.9 622.831C2286.59 608.695 2381.39 534.605 2384.8 446.989" stroke="#DFDFDF" stroke-miterlimit="10"/>
<path d="M14.164 1200.08C11.3613 1057.5 75.2152 915.17 183.426 822.314C265.68 751.27 372.794 710.204 481.248 705.573C512.201 704.233 543.275 705.939 573.861 710.813C657.578 723.974 735.689 758.825 816.238 785.878C832.811 791.483 849.505 796.602 866.322 801.354C941.753 822.192 1020.72 827.919 1091.15 804.035C1129.54 791.118 1165.36 769.305 1196.68 736.647C1234.94 696.799 1260.29 646.959 1289.9 600.165C1294.17 593.463 1298.55 586.761 1303.06 580.18C1381.42 465.511 1511.81 442.602 1635.86 475.504C1654.38 480.378 1672.54 486.349 1690.45 492.93C1763.93 520.226 1833.27 560.317 1905.9 594.316C1959.27 619.297 2016.55 641.475 2075.16 652.321C2115.74 659.754 2157.05 661.826 2198.12 655.611C2298.65 640.379 2394.06 560.805 2394.31 465.755" stroke="#DFDFDF" stroke-miterlimit="10"/>
<path d="M1.12464 1200.2C-2.16554 1059.33 59.8605 918.217 165.999 825.482C272.138 732.748 420.319 690.097 559.481 712.276C661.355 728.483 754.943 776.739 854.258 804.766C971.729 837.912 1097.98 834.256 1187.05 739.45C1230.8 692.9 1257.12 633.189 1293.19 580.546C1372.52 464.781 1509.37 446.014 1638.05 485.618C1736.15 515.839 1823.03 573.6 1914.31 620.516C2005.58 667.432 2107.94 704.599 2209.33 688.391C2310.71 672.184 2406.86 587.127 2403.94 484.4" stroke="#DFDFDF" stroke-miterlimit="10"/>
<path d="M27.0808 1200.08C28.1775 1062.38 93.1282 927.478 199.267 837.058C211.453 826.7 224.126 816.952 237.287 807.812C338.673 737.256 465.894 703.623 585.803 718.246C641.736 724.948 694.988 741.399 748.119 758.581C789.063 771.864 830.008 785.512 871.927 795.505C985.743 822.923 1107.97 815.002 1195.58 721.171C1238.72 674.865 1265.53 616.129 1301.97 564.582C1381.17 451.619 1516.07 432.366 1642.93 470.873C1667.06 478.185 1690.45 487.202 1713.48 497.316C1782.82 528.025 1847.89 569.091 1915.53 604.065C1931 612.107 1946.72 619.784 1962.81 626.974C2040.19 661.582 2123.78 684.248 2206.65 671.209C2306.69 655.489 2401.74 573.112 2401.62 472.945" stroke="#DFDFDF" stroke-miterlimit="10"/>
<path d="M52.9151 1199.83C58.3988 1065.42 126.274 936.739 232.413 848.514C244.599 838.399 257.272 828.894 270.311 819.877C371.088 750.417 495.384 714.591 612.003 723.974C666.352 728.361 718.142 741.765 769.566 756.023C809.292 766.99 848.896 778.323 889.475 786.122C999.514 807.691 1117.84 795.749 1203.99 702.771C1246.52 656.708 1273.94 599.191 1310.62 548.497C1389.95 438.703 1522.65 418.596 1647.8 456.007C1671.56 463.074 1694.72 471.97 1717.51 481.963C1785.99 512.183 1849.97 553.006 1916.62 587.736C1931.85 595.657 1947.45 603.334 1963.29 610.402C2039.58 644.766 2122.08 666.7 2203.97 654.149C2302.79 638.917 2396.62 559.221 2399.3 461.612" stroke="#DFDFDF" stroke-miterlimit="10"/>
<path d="M78.8708 1199.59C88.7413 1068.47 159.541 945.878 265.68 860.09C277.866 850.219 290.418 840.958 303.456 832.062C403.746 763.821 524.996 725.558 638.324 729.823C691.211 731.773 741.295 742.252 791.135 753.585C829.642 762.237 867.906 771.133 907.145 776.86C1013.65 792.336 1127.83 776.617 1212.64 684.37C1254.69 638.551 1282.59 582.13 1319.39 532.412C1398.6 425.542 1529.36 404.947 1652.68 441.14C1676.19 447.964 1699.1 456.616 1721.53 466.486C1789.16 496.22 1852.16 536.799 1917.84 571.285C1932.83 579.205 1948.18 586.761 1963.78 593.829C2038.97 627.827 2120.49 649.152 2201.28 636.966C2298.77 622.222 2391.51 545.207 2396.99 450.157" stroke="#DFDFDF" stroke-miterlimit="10"/>
<path d="M104.827 1199.34C119.206 1071.51 192.809 955.139 299.07 871.544C311.255 861.917 323.807 852.778 336.724 844.126C436.404 777.104 554.729 736.403 664.768 735.55C716.07 735.063 764.692 742.618 812.704 751.026C849.871 757.363 886.916 763.821 924.936 767.355C1027.66 776.982 1137.95 757.119 1221.3 665.847C1262.73 620.272 1291.12 564.948 1328.29 516.204C1407.37 412.381 1536.3 391.055 1657.79 426.151C1681.07 432.853 1703.61 441.261 1725.79 450.888C1792.57 480.134 1854.47 520.469 1919.18 554.712C1933.93 562.511 1949.04 570.066 1964.51 577.012C2038.6 610.645 2119.03 631.483 2198.85 619.662C2295.12 605.405 2386.75 531.071 2394.92 438.58" stroke="#DFDFDF" stroke-miterlimit="10"/>
<path d="M130.661 1199.22C149.427 1074.56 225.955 964.401 332.215 883.121C344.401 873.86 356.953 864.843 369.748 856.312C468.819 790.387 584.219 747.371 690.846 741.4C740.564 738.597 787.601 743.106 834.03 748.468C869.978 752.489 905.683 756.632 942.362 757.972C1041.43 761.75 1147.82 737.866 1229.58 647.447C1270.41 602.115 1299.41 547.888 1336.82 500.119C1415.9 399.22 1542.76 377.408 1662.43 411.163C1685.33 417.621 1707.63 425.786 1729.57 435.291C1795.49 463.927 1856.42 504.141 1920.03 538.018C1934.66 545.816 1949.52 553.25 1964.63 560.196C2037.63 593.463 2117.08 613.692 2195.68 602.359C2290.61 588.589 2381.15 516.936 2392.12 427.004" stroke="#DFDFDF" stroke-miterlimit="10"/>
<path d="M156.617 1198.98C179.77 1077.61 259.222 973.662 365.483 894.698C377.668 885.68 390.22 876.906 402.893 868.498C501.477 803.791 613.831 758.46 717.167 747.371C765.423 742.131 810.876 743.837 855.598 746.152C890.206 747.98 924.692 749.564 960.031 748.833C1055.45 746.639 1157.81 718.734 1238.11 629.168C1278.33 584.08 1307.82 530.95 1345.59 484.156C1424.56 386.303 1549.46 363.759 1667.3 396.417C1689.97 402.632 1712.02 410.675 1733.59 419.936C1798.66 448.086 1858.5 488.055 1921.13 521.688C1935.51 529.365 1950.13 536.799 1965 543.623C2036.9 576.525 2115.25 596.266 2192.88 585.299C2286.46 572.016 2375.91 503.044 2389.68 415.549" stroke="#DFDFDF" stroke-miterlimit="10"/>
<path d="M182.572 1198.74C210.234 1080.65 292.489 982.802 398.75 906.152C410.936 897.379 423.365 888.849 436.16 880.684C534.135 817.196 643.442 769.427 743.488 753.22C790.16 745.543 834.151 744.324 877.167 743.715C910.556 743.227 943.702 742.496 977.701 739.45C1069.46 731.407 1167.8 699.48 1246.64 610.767C1286.25 565.923 1316.22 513.889 1354.24 468.07C1433.09 373.142 1556.04 349.989 1672.17 381.551C1694.47 387.644 1716.29 395.321 1737.61 404.582C1801.83 432.244 1860.57 471.97 1922.35 505.359C1936.49 513.036 1950.86 520.348 1965.61 527.05C2036.41 559.586 2113.79 578.718 2190.32 568.116C2282.69 555.321 2370.91 489.03 2387.48 404.095" stroke="#DFDFDF" stroke-miterlimit="10"/>
<path d="M208.406 1198.49C240.455 1083.58 325.634 992.063 431.895 917.729C444.081 909.199 456.511 900.913 469.184 892.87C566.671 830.478 673.054 780.394 769.81 759.069C814.897 749.077 857.304 744.812 898.736 741.278C930.907 738.597 962.712 735.307 995.37 730.189C1083.35 716.297 1177.79 680.348 1255.29 592.488C1294.41 548.01 1324.88 496.951 1363.14 452.229C1441.86 360.225 1562.99 336.585 1677.17 366.928C1699.23 372.777 1720.67 380.332 1741.75 389.35C1805.12 416.524 1862.88 456.006 1923.57 489.152C1937.46 496.707 1951.72 504.019 1966.1 510.721C2035.8 543.014 2112.08 561.414 2187.64 551.3C2278.66 538.992 2365.79 475.382 2385.29 393.005" stroke="#DFDFDF" stroke-miterlimit="10"/>
<path d="M234.363 1198.37C270.798 1086.75 358.902 1001.32 465.163 929.306C477.349 921.02 489.778 912.977 502.33 905.056C599.208 843.883 702.666 791.362 796.009 764.918C839.635 752.489 880.458 745.299 920.183 738.841C951.014 733.845 981.6 728.239 1012.92 720.927C1097.24 701.186 1187.66 661.095 1263.7 574.088C1302.21 529.853 1333.16 479.891 1371.79 436.144C1450.27 347.065 1569.57 322.815 1682.04 352.061C1703.74 357.667 1725.06 364.978 1745.78 373.874C1808.29 400.561 1864.95 439.799 1924.66 472.579C1938.31 480.135 1952.33 487.324 1966.58 493.905C2035.19 525.832 2110.5 543.745 2184.96 533.996C2274.64 522.176 2360.68 461.247 2382.98 381.429" stroke="#DFDFDF" stroke-miterlimit="10"/>
<path d="M260.318 1198.13C301.141 1089.79 392.169 1010.59 498.552 940.882C510.738 932.84 523.168 925.041 535.597 917.242C631.866 857.165 732.277 802.329 822.331 770.767C864.372 755.901 903.732 745.786 941.752 736.403C971.364 729.092 1000.61 721.049 1030.59 711.544C1111.14 686.076 1197.78 641.841 1272.23 555.687C1310.13 511.696 1341.57 462.83 1380.57 420.058C1458.92 334.026 1576.27 309.167 1686.92 337.194C1708.37 342.556 1729.33 349.746 1749.8 358.397C1811.46 384.597 1867.15 423.592 1925.88 456.128C1939.29 463.562 1953.06 470.751 1967.07 477.332C2034.58 508.893 2108.79 526.197 2182.15 516.814C2270.62 505.481 2355.44 447.232 2380.54 369.974" stroke="#DFDFDF" stroke-miterlimit="10"/>
<path d="M286.152 1197.88C331.484 1092.84 425.315 1019.85 531.698 952.337C543.884 944.66 556.191 936.983 568.621 929.306C664.402 870.448 761.889 813.296 848.652 776.617C889.231 759.313 926.886 746.274 963.321 733.966C991.714 724.339 1019.5 713.981 1048.38 702.283C1125.27 670.965 1207.89 622.587 1280.89 537.408C1318.17 493.661 1350.1 445.892 1389.34 404.095C1467.45 320.987 1582.97 295.519 1691.91 322.449C1713.12 327.689 1733.71 334.635 1753.94 343.044C1814.75 368.756 1869.34 407.507 1927.1 439.799C1940.38 447.233 1953.79 454.301 1967.68 460.759C2034.09 491.955 2107.33 508.65 2179.59 499.754C2266.72 488.908 2350.56 433.341 2378.34 358.52" stroke="#DFDFDF" stroke-miterlimit="10"/>
<path d="M312.108 1197.64C361.827 1095.76 458.582 1028.99 564.965 963.914C577.151 956.48 589.459 949.047 601.766 941.492C697.06 883.853 791.5 824.264 874.974 782.466C913.968 762.847 950.16 746.762 984.89 731.529C1011.94 719.587 1038.51 706.914 1066.05 693.022C1139.16 655.977 1217.88 603.456 1289.42 519.008C1326.22 475.504 1358.51 428.832 1398.11 388.009C1476.1 307.705 1589.8 281.749 1696.79 307.583C1717.63 312.579 1738.1 319.281 1757.96 327.689C1817.92 352.914 1871.53 391.421 1928.2 423.47C1941.24 430.782 1954.52 437.85 1968.05 444.186C2033.36 475.017 2105.5 491.224 2176.79 482.694C2262.7 472.458 2345.32 419.449 2375.91 347.187" stroke="#DFDFDF" stroke-miterlimit="10"/>
<path d="M337.943 1197.52C392.048 1098.93 491.728 1038.37 598.111 975.49C610.297 968.3 622.605 961.111 634.912 953.677C729.596 897.135 821.112 835.231 901.174 788.315C938.584 766.258 973.314 747.249 1006.34 729.092C1032.17 714.834 1057.4 699.845 1083.6 683.638C1153.06 640.866 1227.75 584.202 1297.82 500.607C1334.02 457.347 1366.8 411.65 1406.77 371.924C1484.51 294.543 1596.38 268.1 1701.54 292.716C1722.14 297.468 1742.24 304.048 1761.86 312.213C1820.96 336.828 1873.48 375.214 1929.3 406.897C1942.09 414.209 1955.13 421.155 1968.53 427.491C2032.75 458.078 2103.92 473.554 2174.11 465.389C2258.68 455.641 2340.2 405.313 2373.59 335.61" stroke="#DFDFDF" stroke-miterlimit="10"/>
<path d="M363.898 1197.27C422.512 1101.98 524.995 1047.51 631.378 986.945C643.564 979.999 655.872 972.931 668.058 965.863C762.132 910.54 850.724 846.198 927.495 794.165C963.443 769.671 996.467 747.736 1027.91 726.655C1052.4 710.082 1076.41 692.778 1101.27 674.377C1166.95 625.756 1237.75 564.948 1306.48 482.206C1342.06 439.19 1375.33 394.59 1415.66 355.839C1493.16 281.383 1603.2 254.33 1706.66 277.727C1726.89 282.236 1746.75 288.573 1766.13 296.615C1824.37 320.743 1875.8 358.885 1930.64 390.325C1943.19 397.514 1955.98 404.46 1969.14 410.675C2032.27 440.896 2102.33 455.885 2171.55 448.086C2254.78 438.824 2335.21 391.3 2371.4 324.034" stroke="#DFDFDF" stroke-miterlimit="10"/>
<path d="M389.854 1197.03C452.855 1105.03 558.263 1056.77 664.646 998.522C676.832 991.819 689.018 984.995 701.203 978.049C794.791 923.944 880.336 857.287 953.817 800.014C988.181 773.205 1019.74 748.224 1049.48 724.096C1072.75 705.208 1095.42 685.588 1118.94 664.994C1180.96 610.645 1247.74 545.695 1315.01 463.806C1349.98 421.033 1383.73 377.53 1424.31 339.753C1501.57 268.1 1609.78 240.682 1711.41 262.861C1731.4 267.247 1750.89 273.34 1770.03 281.139C1827.42 304.78 1877.87 342.678 1931.61 373.874C1943.92 381.064 1956.59 387.888 1969.39 394.102C2031.41 423.958 2100.51 438.337 2168.5 431.026C2250.52 422.252 2329.72 377.408 2368.72 312.701" stroke="#DFDFDF" stroke-miterlimit="10"/>
<path d="M415.688 1196.79C483.076 1107.95 591.409 1065.91 697.913 1009.98C710.099 1003.52 722.285 996.937 734.349 990.113C827.327 937.105 909.947 868.133 980.138 805.863C1013.04 776.617 1042.89 748.711 1071.04 721.658C1093.1 700.577 1114.43 678.52 1136.6 655.611C1194.97 595.535 1257.85 526.319 1323.54 445.405C1358.02 402.876 1392.02 360.347 1433.09 323.668C1510.1 254.94 1616.48 226.912 1716.41 247.994C1736.03 252.137 1755.4 257.986 1774.17 265.785C1830.71 288.938 1880.06 326.592 1932.95 357.545C1945.14 364.612 1957.44 371.436 1970.12 377.529C2031.05 407.019 2099.04 420.789 2166.07 413.843C2246.74 405.557 2324.85 363.394 2366.65 301.124" stroke="#DFDFDF" stroke-miterlimit="10"/>
<path d="M441.644 1196.66C513.419 1111.12 624.676 1075.29 731.18 1021.67C743.366 1015.58 755.552 1009.12 767.494 1002.42C859.985 950.631 939.559 879.222 1006.34 811.834C1037.66 780.151 1066.05 749.32 1092.49 719.343C1113.21 695.946 1133.31 671.453 1154.15 646.472C1208.87 580.668 1267.72 507.309 1331.94 427.126C1365.82 384.841 1400.31 343.409 1441.74 307.826C1518.51 241.901 1623.19 213.386 1721.16 233.371C1740.54 237.27 1759.55 242.997 1778.07 250.553C1833.76 273.218 1882.14 310.629 1933.93 341.216C1945.87 348.283 1957.93 354.986 1970.36 361.078C2030.19 390.203 2097.22 403.485 2163.14 396.905C2242.47 389.106 2319.49 349.624 2364.09 289.913" stroke="#DFDFDF" stroke-miterlimit="10"/>
<path d="M467.6 1196.42C543.884 1114.17 657.943 1084.43 764.448 1033.13C776.634 1027.28 788.698 1021.07 800.64 1014.49C892.521 963.792 969.171 890.067 1032.66 817.561C1062.39 783.563 1089.2 749.564 1114.06 716.784C1133.44 690.95 1152.32 664.263 1171.94 637.089C1223.12 565.558 1277.84 488.055 1340.6 408.725C1373.86 366.684 1408.84 326.227 1450.63 291.741C1527.04 228.618 1630.01 199.738 1726.16 218.504C1745.29 222.16 1763.93 227.765 1782.21 235.077C1837.05 257.255 1884.33 294.422 1935.14 324.765C1946.84 331.711 1958.66 338.413 1970.97 344.384C2029.71 373.143 2095.63 385.816 2160.58 379.723C2238.69 372.411 2314.61 335.61 2361.89 278.458" stroke="#DFDFDF" stroke-miterlimit="10"/>
<path d="M493.434 1196.18C574.105 1117.09 691.089 1093.69 797.594 1044.71C809.779 1039.1 821.843 1033.13 833.664 1026.67C925.058 977.196 998.66 901.156 1058.86 823.41C1087.13 786.975 1112.23 750.052 1135.51 714.347C1153.66 686.198 1171.33 657.195 1189.49 627.705C1237.02 550.447 1287.71 468.68 1349.13 390.325C1381.78 348.527 1417.12 309.045 1459.29 275.656C1535.45 215.335 1636.59 185.968 1731.03 203.637C1749.8 207.171 1768.32 212.411 1786.23 219.601C1840.22 241.291 1886.4 278.215 1936.36 308.314C1947.82 315.26 1959.52 321.84 1971.46 327.689C2029.1 356.204 2094.05 368.146 2157.9 362.541C2234.67 355.717 2309.49 321.596 2359.58 267.004" stroke="#DFDFDF" stroke-miterlimit="10"/>
<path d="M519.39 1195.93C604.447 1120.14 724.356 1102.95 830.861 1056.16C843.047 1050.8 855.111 1045.07 866.931 1038.73C957.716 990.479 1028.39 912.002 1085.3 829.26C1111.99 790.387 1135.63 750.539 1157.2 711.91C1174.02 681.567 1190.47 650.127 1207.28 618.444C1251.4 535.58 1297.82 449.548 1357.78 371.924C1389.83 330.37 1425.65 291.863 1468.18 259.57C1543.98 201.931 1643.41 172.319 1736.03 188.77C1754.55 192.061 1772.71 197.179 1790.38 204.125C1843.51 225.206 1888.72 262.007 1937.58 291.863C1948.79 298.687 1960.25 305.267 1972.07 311.117C2028.61 339.266 2092.46 350.721 2155.22 345.359C2230.77 339.022 2304.38 307.583 2357.26 255.549" stroke="#DFDFDF" stroke-miterlimit="10"/>
<path d="M545.346 1195.81C645.148 1115.02 786.261 1110.51 900.077 1051.04C1032.66 981.827 1116.5 839.861 1178.65 709.594C1257.12 545.329 1323.78 354.864 1476.83 243.728C1567.5 177.803 1690.09 147.826 1794.4 188.892C1858.74 214.239 1910.65 263.591 1972.43 294.665C2094.41 355.839 2252.83 335.001 2354.83 244.338" stroke="#DFDFDF" stroke-miterlimit="10"/>
</svg>
