<svg width="1444" height="963" viewBox="0 0 1444 963" fill="none" xmlns="http://www.w3.org/2000/svg">
<mask id="mask0_2042_56" style="mask-type:luminance" maskUnits="userSpaceOnUse" x="0" y="0" width="1444" height="963">
<path d="M1444 0H0V962.667H1444V0Z" fill="white"/>
</mask>
<g mask="url(#mask0_2042_56)">
<path d="M-71.5984 749.677C19.6143 788.424 137.902 738.486 174.002 646.311C194.338 594.327 190.247 536.446 184.471 480.973C176.288 402.515 162.931 290.966 233.086 234.53C260.642 212.389 297.945 202.882 332.722 209.26C385.307 218.887 425.86 261.003 475.798 279.655C531.392 300.473 586.986 293.253 630.667 253.904C672.302 216.48 705.153 170.392 747.751 134.052C820.673 71.8393 920.911 43.6813 1015.73 56.0756C1125.48 70.5156 1228 122.018 1341.11 113.114C1384.92 109.744 1426.55 94.5822 1460.85 66.7852C1522.82 16.6063 1570.35 -48.3737 1614.75 -114.316" stroke="#F2F2F2" stroke-miterlimit="10"/>
<path d="M-72.3206 735.598C-6.85922 760.386 73.4031 739.689 126.711 692.518C145.723 675.551 161.367 655.215 171.354 632.111C181.342 609.248 186.276 585.181 188.442 560.633C190.969 532.114 189.645 503.114 187.84 474.474C186.757 455.582 185.193 434.524 184.711 412.743C183.147 347.523 189.645 275.202 241.027 232.725C267.982 210.343 304.323 200.235 338.497 205.409C390.12 213.231 430.913 252.7 480.731 270.509C510.213 281.099 539.695 284.227 567.251 279.294C591.318 274.962 614.181 264.493 634.517 247.526C676.153 212.749 709.485 170.031 752.083 136.578C824.885 79.0591 923.799 53.7891 1018.02 65.3411C1023.31 65.9428 1028.49 66.6648 1033.78 67.5071C1131.73 82.4284 1224.51 121.055 1324.15 115.4C1329.2 115.159 1334.26 114.678 1339.31 114.196C1382.27 109.744 1423.06 94.1008 1456.76 66.3038C1517.76 16.1248 1564.69 -48.4942 1608.5 -113.956" stroke="#E8F2F3" stroke-miterlimit="10"/>
<path d="M-73.1628 721.519C-9.38617 742.577 69.3118 720.797 122.86 675.552C141.993 659.307 157.877 639.933 168.466 617.912C178.935 596.252 184.832 573.389 187.84 550.164C191.45 523.089 191.45 495.413 190.969 467.977C190.728 449.806 190.127 429.47 190.367 408.291C191.21 344.876 198.55 273.518 248.729 230.679C275.082 208.177 310.46 197.227 344.033 201.198C394.814 207.214 435.727 244.036 485.304 261.003C514.545 271.111 543.666 274.24 571.222 269.908C595.169 266.057 617.791 256.431 638.127 240.787C679.763 208.658 713.577 169.43 756.054 138.624C828.736 85.9183 926.446 63.416 1019.82 74.1256C1025 74.7273 1030.29 75.4493 1035.47 76.1713C1132.7 89.769 1224.63 124.425 1322.22 116.363C1327.16 116.002 1332.09 115.4 1337.14 114.798C1379.26 109.383 1419.21 93.1383 1452.3 65.3413C1512.23 15.042 1558.56 -49.0957 1601.88 -114.076" stroke="#DDF2F3" stroke-miterlimit="10"/>
<path d="M-74.0051 707.319C-11.9131 724.527 65.2205 701.664 119.13 658.344C138.383 642.821 154.508 624.41 165.699 603.592C176.77 583.015 183.388 561.596 187.479 539.575C192.172 513.944 193.496 487.711 194.338 461.358C194.94 443.91 195.301 424.416 196.384 403.839C199.633 342.228 207.695 271.953 256.671 228.754C282.422 206.011 316.838 194.338 349.809 197.106C399.747 201.318 440.781 235.613 490.117 251.617C519.118 261.123 547.998 264.372 575.313 260.522C599.019 257.152 621.522 248.368 641.858 234.048C683.614 204.446 717.788 168.707 760.266 140.79C832.707 92.8974 929.214 73.1627 1021.99 83.03C1027.17 83.6317 1032.34 84.2334 1037.51 84.835C1133.9 97.2294 1224.99 127.794 1320.66 117.325C1325.47 116.723 1330.41 116.122 1335.22 115.4C1376.49 108.902 1415.6 92.1754 1448.09 64.3784C1506.93 14.079 1552.66 -49.6976 1595.5 -114.196" stroke="#D3F1F4" stroke-miterlimit="10"/>
<path d="M-74.8474 693.241C-14.4401 706.718 61.1293 682.772 115.4 641.257C134.773 626.456 151.259 609.008 162.931 589.393C174.604 570.02 181.944 549.804 186.998 528.986C192.894 504.799 195.421 479.89 197.587 454.74C199.031 438.014 200.475 419.242 202.28 399.267C207.936 339.461 216.72 270.149 264.613 226.708C289.763 203.845 323.215 191.451 355.585 192.895C404.561 195.301 445.835 226.829 494.931 242.111C523.691 251.016 552.33 254.265 579.405 251.016C602.99 248.128 625.252 240.306 645.468 227.19C687.224 200.235 721.88 167.865 764.237 142.836C836.557 99.7568 931.741 82.7898 1023.8 91.8148C1028.97 92.2961 1034.02 92.8978 1039.2 93.4995C1134.74 104.69 1224.99 131.284 1318.73 118.288C1323.55 117.566 1328.24 116.844 1333.05 116.002C1373.48 108.541 1411.63 91.2131 1443.64 63.2958C1501.4 12.8761 1546.52 -50.4192 1588.88 -114.437" stroke="#C9F1F4" stroke-miterlimit="10"/>
<path d="M-75.5693 679.162C-16.7263 688.909 57.1583 663.879 111.79 624.29C131.284 610.09 148.01 593.725 160.284 575.314C172.438 557.144 180.741 538.131 186.637 518.637C193.616 496.014 197.467 472.429 201.077 448.362C203.484 432.358 205.65 414.308 208.297 394.934C216.119 336.813 225.986 268.584 272.675 224.783C297.223 201.679 329.593 188.563 361.481 188.924C409.615 189.405 451.009 218.526 499.865 232.845C528.384 241.269 556.782 244.518 583.617 241.87C606.961 239.584 629.103 232.484 649.319 220.692C691.195 196.384 726.212 167.625 768.569 145.243C840.769 107.097 934.749 92.7775 1026.08 100.96C1031.14 101.441 1036.19 101.923 1041.36 102.404C1136.07 112.392 1225.47 134.894 1317.29 119.371C1321.98 118.529 1326.68 117.686 1331.25 116.724C1370.84 108.3 1408.14 90.3708 1439.55 62.4535C1496.35 12.0338 1540.75 -50.9005 1582.62 -114.437" stroke="#BEF1F5" stroke-miterlimit="10"/>
<path d="M-76.4119 664.962C-19.2535 670.979 53.0668 644.746 108.059 607.082C127.673 593.605 144.64 578.202 157.636 560.994C170.392 544.027 179.417 526.338 186.396 508.048C194.458 486.869 199.633 464.607 204.566 441.744C207.815 426.462 211.064 409.254 214.434 390.482C224.662 334.166 235.251 266.9 280.737 222.858C304.684 199.513 336.091 185.675 367.377 184.832C414.668 183.509 456.304 209.982 504.798 223.459C533.076 231.281 561.234 234.65 587.828 232.484C611.052 230.679 632.953 224.422 653.169 213.953C695.045 192.293 730.543 166.903 772.78 147.288C844.86 113.956 937.517 102.404 1028.25 109.744C1033.3 110.105 1038.36 110.587 1043.29 111.068C1137.27 119.732 1225.84 138.263 1315.6 120.334C1320.18 119.371 1324.75 118.408 1329.32 117.205C1368.07 107.699 1404.53 89.2877 1435.34 61.3704C1491.05 10.8304 1534.85 -51.6226 1576.25 -114.677" stroke="#B4F1F6" stroke-miterlimit="10"/>
<path d="M-77.2542 650.883C-21.7805 653.169 48.9755 625.854 104.329 589.995C124.064 577.239 141.271 562.799 154.869 546.795C168.226 530.911 178.093 514.545 185.915 497.458C195.06 477.723 201.558 456.786 207.816 435.126C212.027 420.565 216.119 404.08 220.21 385.909C232.845 331.398 244.276 265.094 288.559 220.812C311.904 197.347 342.348 182.786 373.033 180.62C419.362 177.492 461.238 201.318 509.491 213.953C537.529 221.293 565.446 224.663 591.799 222.978C614.783 221.654 636.683 216.239 656.779 207.094C698.775 187.961 734.635 166.18 776.872 149.334C848.831 120.815 940.164 112.151 1030.17 118.528C1035.11 118.889 1040.16 119.25 1045.09 119.732C1138.23 127.192 1225.96 141.873 1313.8 121.296C1318.25 120.213 1322.7 119.13 1327.28 117.806C1365.18 107.337 1400.8 88.3248 1431 60.4075C1485.63 9.86749 1528.83 -52.2245 1569.75 -114.798" stroke="#AAF1F6" stroke-miterlimit="10"/>
<path d="M-77.9761 636.804C-24.1871 635.36 45.0046 606.841 100.719 573.028C120.574 560.874 138.143 547.517 152.222 532.716C166.06 518.035 176.77 502.873 185.554 487.11C195.903 468.819 203.604 449.325 211.185 428.748C216.239 414.91 221.293 399.146 226.227 381.698C241.268 328.992 253.422 263.651 296.501 219.127C319.244 195.422 348.726 180.139 378.809 176.89C424.295 171.957 466.292 193.256 514.305 204.928C541.981 211.667 569.778 215.036 596.011 214.073C618.874 213.231 640.534 208.779 660.63 200.837C702.747 184.351 738.967 165.94 781.084 151.981C852.802 128.276 943.052 122.379 1032.34 127.915C1037.27 128.276 1042.21 128.516 1047.14 128.877C1139.44 135.135 1226.44 145.844 1312.36 122.74C1316.69 121.537 1321.14 120.334 1325.47 118.89C1362.53 107.458 1397.19 87.8438 1426.91 59.8061C1480.46 9.14581 1523.06 -52.4649 1563.49 -114.437" stroke="#9FF0F7" stroke-miterlimit="10"/>
<path d="M-78.8184 622.726C-26.714 617.551 40.9133 587.949 96.9886 555.941C116.964 544.509 134.773 532.115 149.454 518.517C163.894 505.039 175.326 491.201 185.073 476.641C196.504 459.674 205.529 441.624 214.434 422.371C220.451 409.254 226.347 394.213 232.123 377.366C249.451 326.465 262.567 262.086 304.443 217.202C326.585 193.376 354.983 177.251 384.585 172.799C429.229 166.06 471.346 184.712 519.118 195.542C546.554 201.799 574.11 205.169 600.102 204.688C622.725 204.327 644.265 200.717 664.36 194.098C706.477 180.26 743.179 165.338 785.295 154.147C856.894 135.135 945.82 132.126 1034.39 136.819C1039.32 137.06 1044.13 137.301 1049.07 137.662C1140.52 142.716 1226.68 149.334 1310.67 123.823C1315 122.5 1319.21 121.176 1323.55 119.612C1359.77 107.097 1393.58 87.0015 1422.58 58.9638C1475.17 8.30347 1517.04 -52.9462 1556.99 -114.437" stroke="#95F0F8" stroke-miterlimit="10"/>
<path d="M-79.6606 608.526C-29.241 599.621 36.822 568.936 93.2584 538.853C113.234 528.143 131.404 516.712 146.686 504.197C161.728 491.923 174.002 479.288 184.712 465.931C197.226 450.408 207.695 433.682 217.803 415.632C224.783 403.237 231.521 389.038 238.019 372.673C257.754 323.577 271.592 260.161 312.385 215.036C333.925 190.969 361.361 174.243 390.361 168.467C434.042 159.923 476.4 175.928 523.931 185.915C551.127 191.571 578.442 195.061 604.194 195.181C626.696 195.301 648.115 192.534 668.091 187.239C710.328 176.048 747.27 164.496 789.387 156.193C860.744 141.994 948.467 141.753 1036.43 145.604C1041.24 145.844 1046.18 146.085 1050.99 146.205C1141.72 149.936 1227.04 152.583 1308.99 124.666C1313.2 123.222 1317.41 121.657 1321.5 120.093C1356.88 106.616 1389.85 85.9184 1418.25 57.8807C1469.75 7.10007 1511.03 -53.6682 1550.49 -114.677" stroke="#8BF0F8" stroke-miterlimit="10"/>
<path d="M-80.5029 594.447C-31.7679 581.812 32.7308 549.923 89.5281 521.765C109.624 511.657 128.155 501.309 143.919 489.997C159.442 478.806 172.558 467.495 184.23 455.462C197.828 441.383 209.621 426.1 221.052 409.133C228.874 397.461 236.575 383.984 243.916 368.34C266.057 320.929 280.738 258.597 320.207 213.231C341.145 189.044 367.618 171.475 396.017 164.496C438.856 154.027 481.333 167.625 528.624 176.65C555.579 181.824 582.654 185.193 608.165 185.915C630.426 186.517 651.725 184.712 671.58 180.741C713.938 172.318 751.241 164.015 793.358 158.479C864.595 149.093 951.115 151.62 1038.24 154.629C1043.05 154.749 1047.86 154.99 1052.68 155.11C1142.57 157.637 1227.04 156.313 1307.06 125.869C1311.15 124.305 1315.24 122.62 1319.33 120.935C1353.87 106.375 1386 85.1962 1413.8 57.1585C1464.22 6.37786 1504.89 -54.0295 1543.88 -114.557" stroke="#80F0F9" stroke-miterlimit="10"/>
<path d="M-81.2251 580.368C-34.0544 564.002 28.7596 531.031 85.7976 504.678C106.014 495.292 124.786 485.906 141.151 475.798C157.276 465.81 171.114 455.823 183.749 444.993C198.43 432.358 211.666 418.399 224.301 402.635C233.086 391.685 241.629 378.93 249.812 363.888C274.36 318.282 289.763 256.912 328.149 211.185C348.485 186.757 373.996 168.587 401.793 160.404C443.789 148.13 486.387 159.081 533.438 167.263C560.152 171.956 586.986 175.326 612.256 176.529C634.397 177.612 655.456 176.649 675.311 174.002C717.788 168.226 755.453 163.413 797.449 160.645C868.446 156.072 953.762 161.367 1040.28 163.533C1045.09 163.653 1049.79 163.774 1054.6 163.774C1143.65 165.097 1227.28 159.682 1305.38 126.831C1309.35 125.147 1313.32 123.342 1317.29 121.537C1350.98 106.014 1382.27 84.2335 1409.46 56.0755C1458.8 5.17448 1498.99 -54.7515 1537.38 -114.798" stroke="#76F0F9" stroke-miterlimit="10"/>
<path d="M-82.0674 566.169C-36.5814 546.073 24.6683 511.898 82.0673 487.591C102.404 478.927 121.416 470.504 138.383 461.599C155.11 452.815 169.79 444.03 183.388 434.404C199.272 423.213 213.712 410.578 227.671 396.017C237.418 385.789 246.804 373.756 255.708 359.436C282.663 315.635 298.908 255.227 336.091 209.26C355.826 184.592 380.374 165.699 407.569 156.313C448.603 142.234 491.441 150.658 538.371 157.878C564.845 161.969 591.438 165.459 616.468 167.264C638.368 168.828 659.427 168.828 679.161 167.384C721.759 164.255 759.785 163.172 801.781 162.932C872.657 162.571 956.65 171.235 1042.45 172.558C1047.14 172.679 1051.95 172.679 1056.65 172.679C1144.97 172.799 1227.76 163.293 1303.81 128.035C1307.66 126.23 1311.63 124.305 1315.48 122.379C1348.21 105.894 1378.66 83.5117 1405.37 55.3537C1453.75 4.3324 1493.22 -55.1122 1531.12 -114.677" stroke="#6CF0FA" stroke-miterlimit="10"/>
<path d="M-82.9097 552.09C-39.1083 528.143 20.577 493.006 78.337 470.504C98.7937 462.441 118.167 455.101 135.616 447.4C152.823 439.819 168.346 432.238 182.907 423.935C199.874 414.188 215.758 402.997 231.04 389.519C241.75 380.133 252.098 368.822 261.725 354.984C291.086 312.987 308.053 253.543 344.033 207.335C363.166 182.546 386.631 162.811 413.345 152.222C453.536 136.338 496.495 142.114 543.185 148.492C569.417 152.102 595.77 155.591 620.679 157.878C642.46 159.923 663.277 160.284 683.012 160.645C725.73 161.367 764.117 162.089 806.113 165.098C876.749 170.031 959.658 181.102 1044.73 181.463C1049.43 181.463 1054.12 181.463 1058.81 181.463C1146.3 180.38 1228.24 166.782 1302.37 129.118C1306.22 127.193 1309.95 125.147 1313.8 123.101C1345.69 105.533 1375.29 82.6694 1401.4 54.5114C1448.69 3.49007 1487.56 -55.5936 1524.98 -114.677" stroke="#61EFFB" stroke-miterlimit="10"/>
<path d="M-83.7522 538.01C-41.6355 510.334 16.4855 474.113 74.6065 453.416C95.1835 446.076 114.798 439.698 132.848 433.2C150.657 426.702 167.022 420.565 182.425 413.465C200.475 405.283 217.803 395.415 234.289 383.021C245.961 374.357 257.152 363.768 267.501 350.531C299.269 310.34 317.078 251.858 351.855 205.409C370.386 180.38 392.888 160.043 419.001 148.251C458.35 130.562 501.429 133.811 547.878 139.226C573.87 142.234 599.982 145.724 624.65 148.612C646.19 151.139 667.007 152.944 686.622 154.027C729.46 156.433 768.208 161.608 810.084 167.263C880.599 176.89 962.185 190.849 1046.54 190.367C1051.11 190.367 1055.8 190.247 1060.5 190.127C1147.14 187.72 1228.24 170.151 1300.44 130.08C1304.17 128.035 1307.9 125.869 1311.51 123.703C1342.56 105.171 1371.32 81.7065 1396.83 53.5485C1443.04 2.4068 1481.3 -56.1955 1518.25 -114.798" stroke="#57EFFB" stroke-miterlimit="10"/>
<path d="M-84.4739 523.811C-44.0419 492.404 12.5148 454.981 70.9968 436.329C91.6941 429.711 111.549 424.296 130.201 419.001C148.612 413.706 165.699 408.773 182.185 402.876C201.438 396.138 220.09 387.594 237.779 376.403C250.293 368.461 262.447 358.594 273.638 346.079C307.813 307.693 326.344 250.173 360.038 203.364C377.967 178.214 399.507 157.035 425.018 144.039C463.404 124.545 506.724 125.147 552.932 129.72C578.683 132.247 604.555 135.736 628.983 139.226C650.402 142.234 670.979 145.002 690.593 147.288C733.552 152.342 772.661 160.886 814.537 169.43C884.932 183.87 965.194 200.596 1048.95 199.272C1053.52 199.152 1058.09 199.032 1062.78 198.911C1148.58 195.301 1228.96 173.762 1299.12 131.164C1302.73 128.998 1306.34 126.711 1309.95 124.425C1340.15 104.811 1368.07 80.744 1392.98 52.586C1438.1 1.44437 1475.77 -56.797 1512.23 -114.918" stroke="#4DEFFC" stroke-miterlimit="10"/>
<path d="M-85.3164 509.732C-46.5691 474.595 8.42324 436.088 67.2662 419.242C88.0839 413.225 108.3 408.893 127.433 404.802C146.325 400.71 164.375 396.98 181.703 392.407C202.04 387.113 222.015 380.013 241.028 370.025C254.505 362.805 267.501 353.78 279.534 341.747C316.116 305.166 335.489 248.609 367.859 201.559C385.187 176.168 405.764 154.268 430.673 140.068C468.217 118.769 511.657 116.844 557.625 120.454C583.135 122.5 608.766 125.989 632.953 129.96C654.132 133.45 674.589 137.06 694.203 140.67C737.282 148.492 776.631 160.284 818.507 171.716C888.662 190.849 967.841 210.463 1050.87 208.297C1055.44 208.177 1060.02 208.057 1064.59 207.696C1149.66 202.882 1228.96 177.131 1297.31 132.247C1300.8 129.96 1304.29 127.554 1307.78 125.147C1337.14 104.57 1364.22 79.9017 1388.41 51.7437C1432.57 0.481693 1469.51 -57.2783 1505.49 -114.918" stroke="#42EFFD" stroke-miterlimit="10"/>
<path d="M-86.1587 495.653C-49.096 456.786 4.33196 417.076 63.536 402.154C84.3536 396.86 104.931 393.49 124.665 390.602C144.159 387.714 162.931 385.308 181.222 381.938C202.641 378.088 224.061 372.432 244.277 363.527C258.717 357.15 272.675 348.726 285.31 337.415C324.298 302.759 344.394 247.165 375.681 199.754C392.407 174.243 412.021 151.62 436.329 136.097C473.03 112.873 516.711 108.541 562.318 111.188C587.588 112.632 612.978 116.122 636.924 120.815C657.983 124.906 678.319 129.359 697.813 134.172C740.892 144.761 780.843 159.803 822.599 174.123C892.633 197.949 970.488 220.451 1052.8 217.443C1057.25 217.322 1061.82 217.082 1066.27 216.721C1150.51 210.704 1228.96 180.861 1295.39 133.57C1298.88 131.164 1302.25 128.637 1305.62 125.989C1334.14 104.45 1360.25 79.1795 1383.95 51.0215C1427.03 -0.240497 1463.37 -57.6395 1498.99 -114.798" stroke="#38EFFD" stroke-miterlimit="10"/>
<path d="M-86.8806 481.574C-51.3823 438.976 0.361055 398.183 59.9261 385.187C80.8641 380.615 101.682 378.208 122.018 376.403C142.114 374.598 161.728 373.515 180.981 371.349C203.484 368.942 226.227 364.731 247.766 356.909C263.169 351.253 277.97 343.552 291.447 332.842C332.842 299.991 353.78 245.36 383.743 197.588C399.988 171.836 418.399 148.492 442.225 131.886C477.964 106.856 521.886 99.9974 567.251 101.682C592.16 102.645 617.31 106.134 641.136 111.309C661.954 115.881 682.17 121.296 701.543 127.313C744.743 140.79 785.055 158.961 826.69 176.168C896.604 204.687 973.256 230.078 1054.84 226.227C1059.29 225.986 1063.75 225.746 1068.2 225.385C1151.59 218.044 1229.33 184.231 1293.7 134.533C1297.07 131.886 1300.32 129.359 1303.57 126.591C1331.25 103.968 1356.52 78.217 1379.62 50.059C1421.62 -1.32329 1457.36 -58.241 1492.49 -114.918" stroke="#2EEEFE" stroke-miterlimit="10"/>
<path d="M-87.7231 467.375C-53.9095 421.047 -3.73047 379.171 56.1955 367.98C77.2539 364.009 98.4325 362.685 119.25 362.083C139.827 361.482 160.284 361.602 180.5 360.76C204.205 359.797 228.272 357.029 251.015 350.291C267.38 345.477 283.024 338.498 297.223 328.27C341.024 297.224 362.685 243.555 391.565 195.542C407.208 169.55 424.656 145.483 447.88 127.674C482.777 100.84 526.819 91.3332 571.944 92.1756C596.612 92.6569 621.521 96.1466 645.107 101.802C665.804 106.856 685.78 113.234 705.153 120.454C748.473 136.699 789.026 158.118 830.781 178.094C900.575 211.426 975.903 239.584 1056.77 234.891C1061.22 234.65 1065.55 234.289 1070 233.808C1152.67 225.264 1229.45 187.48 1291.9 135.135C1295.15 132.367 1298.4 129.599 1301.53 126.832C1328.36 103.246 1352.79 76.8932 1375.29 48.7352C1416.2 -2.6471 1451.34 -59.2037 1486 -115.399" stroke="#23EEFE" stroke-miterlimit="10"/>
<path d="M-88.5654 453.296C-56.4364 403.237 -7.82174 360.158 52.4653 351.012C94.5819 344.514 137.421 349.689 180.019 350.411C222.617 351.133 267.14 346.801 303.12 324.058C374.357 278.933 389.158 178.093 453.657 123.823C506.122 79.5404 583.015 74.8474 649.319 92.6568C715.622 110.466 774.826 147.529 834.993 180.62C908.396 220.812 986.733 253.061 1072.05 242.953C1153.88 233.206 1229.81 191.33 1290.33 136.578C1368.43 65.9428 1424.63 -25.2699 1479.62 -115.039" stroke="#19EEFF" stroke-miterlimit="10"/>
</g>
</svg>
