<?xml version="1.0" encoding="UTF-8" standalone="no"?>
<!-- Created with Inkscape (http://www.inkscape.org/) -->

<svg
   width="513.10742"
   height="512"
   viewBox="0 0 513.10742 512"
   version="1.1"
   id="svg1"
   xml:space="preserve"
   xmlns:xlink="http://www.w3.org/1999/xlink"
   xmlns="http://www.w3.org/2000/svg"
   xmlns:svg="http://www.w3.org/2000/svg"><defs
     id="defs1"><linearGradient
       id="linearGradient19"><stop
         style="stop-color:#4dd5e9;stop-opacity:1;"
         offset="0"
         id="stop20" /><stop
         style="stop-color:#8ed3e8;stop-opacity:1;"
         offset="0.88073397"
         id="stop19" /></linearGradient><linearGradient
       xlink:href="#linearGradient19"
       id="linearGradient20"
       x1="-0.55371201"
       y1="277.76352"
       x2="512.55371"
       y2="277.76352"
       gradientUnits="userSpaceOnUse" /></defs><g
     id="layer1"
     transform="translate(0.55371201)"><path
       id="path1"
       style="display:inline;fill:#0c1b20;fill-opacity:1;stroke-width:1.86861"
       d="m 100.9043,0 v 89.341797 89.341793 l 18.9414,15.16211 c 12.55777,-16.60818 32.39882,-27.46289 54.63868,-27.46289 37.62694,0 68.5625,30.9326 68.5625,68.56055 0,8.60915 -1.78291,16.82399 -4.72852,24.45508 l 33.60352,36.54297 c 7.44442,-2.78237 15.42166,-4.47266 23.77539,-4.47266 9.54919,0 18.6068,2.18525 26.91406,5.76953 l 49.94922,-50.67187 20.75131,-21.57641 -3.34789,-27.89429 c 0.58761,-16.81844 10.41291,-36.10948 21.13173,-47.78516 V 89.341797 0 h -32.70117 -32.70117 v 28.029297 28.029297 h -28.0293 -28.02929 V 28.029297 0 H 256 222.36523 v 28.029297 28.029297 h -28.02929 -28.0293 V 28.029297 0 h -32.70117 z m 46.51367,297.66406 -19.09375,19.70117 c -0.27272,1.71331 -0.433,2.77293 -0.70899,4.50391 l -16.3125,102.30664 H 95.640625 c -15.321753,0 -15.802857,0.13879 -22.017578,6.35352 l -6.353516,6.35156 V 474.44141 512 H 256 444.73047 v -37.55859 -37.56055 l -6.35352,-6.35156 c -6.21471,-6.21482 -6.69582,-6.35352 -22.01757,-6.35352 h -15.66211 l -16.3125,-102.30664 c -0.56131,-3.52048 -0.89435,-5.7174 -1.44141,-9.16016 l -23.16797,23.50391 c 2.79163,7.45336 4.48438,15.44754 4.48438,23.81641 0,37.62796 -30.93558,68.56054 -68.5625,68.56054 -37.62696,0 -68.56055,-30.9336 -68.56055,-68.56054 0,-9.57105 2.18577,-18.65598 5.78516,-26.97657 l -32.21094,-35.02734 c -8.12188,3.40086 -16.93931,5.47852 -26.22656,5.47852 -9.6071,0 -18.71654,-2.21386 -27.06641,-5.83985 z" /><path
       style="color:#000000;display:inline;fill:url(#linearGradient20);stroke-linecap:square;stroke-linejoin:round;-inkscape-stroke:none;paint-order:stroke markers fill"
       d="m 461.49081,144.43735 c -28.07634,0 -51.06045,22.98413 -51.06045,51.06046 0,10.58008 3.26714,20.43645 8.83733,28.61288 l -93.43065,94.78383 c -8.46393,-6.2286 -18.89089,-9.92577 -30.1401,-9.92577 -10.26903,0 -19.85121,3.08533 -27.88236,8.35932 L 217.39639,262.4998 c 5.14555,-7.96461 8.15094,-17.42477 8.15094,-27.55632 0,-28.07633 -22.98657,-51.06045 -51.0629,-51.06045 -28.07634,0 -51.06045,22.98412 -51.06045,51.06045 0,9.95701 2.9028,19.2664 7.88619,27.14448 l -53.301036,54.99742 c -7.953863,-5.12394 -17.393592,-8.11663 -27.502393,-8.11663 -28.076337,0 -51.060453,22.98413 -51.060453,51.06045 0,28.07635 22.984116,51.06046 51.060453,51.06046 28.076336,0 51.062899,-22.98411 51.062899,-51.06046 0,-11.20406 -3.668454,-21.59192 -9.852218,-30.03714 L 144.1237,275.91882 c 8.50246,6.32724 19.01366,10.08511 30.36073,10.08511 11.16466,0 21.51682,-3.64466 29.94645,-9.78849 l 49.79062,54.14678 c -6.02136,8.37823 -9.58502,18.62529 -9.58502,29.66698 0,28.07635 22.98411,51.06046 51.06046,51.06046 28.07633,0 51.0629,-22.98411 51.0629,-51.06046 0,-10.05869 -2.96285,-19.45594 -8.04063,-27.38472 l 93.81307,-95.17115 c 8.24508,5.71803 18.22565,9.08493 28.95853,9.08493 28.07633,0 51.0629,-22.98411 51.0629,-51.06045 0,-28.07633 -22.98657,-51.06046 -51.0629,-51.06046 z m 0,24.46019 c 14.9483,0 26.60027,11.65197 26.60027,26.60027 0,14.94831 -11.65197,26.60027 -26.60027,26.60027 -14.9483,0 -26.60027,-11.65196 -26.60027,-26.60027 0,-14.9483 11.65197,-26.60027 26.60027,-26.60027 z m -287.00638,39.44567 c 14.9483,0 26.60027,11.65197 26.60027,26.60027 0,14.9483 -11.65197,26.60027 -26.60027,26.60027 -14.9483,0 -26.60027,-11.65197 -26.60027,-26.60027 0,-14.9483 11.65197,-26.60027 26.60027,-26.60027 z M 50.506741,333.42893 c 14.948304,0 26.600274,11.65199 26.600274,26.60027 0,14.94831 -11.65197,26.60027 -26.600274,26.60027 -14.9483,0 -26.600268,-11.65196 -26.600268,-26.60027 0,-14.94828 11.651968,-26.60027 26.600268,-26.60027 z m 245.190199,0 c 14.94829,0 26.60026,11.65199 26.60026,26.60027 0,14.94831 -11.65197,26.60027 -26.60026,26.60027 -14.9483,0 -26.60027,-11.65196 -26.60027,-26.60027 0,-14.94828 11.65197,-26.60027 26.60027,-26.60027 z"
       id="path19" /></g></svg> 
