<svg width="257" height="256" viewBox="0 0 257 256" fill="none" xmlns="http://www.w3.org/2000/svg">
<g clip-path="url(#clip0_2022_10)">
<path d="M50.8172 0V44.6709V89.3418L60.3044 96.9229C66.5942 88.6188 76.532 83.1914 87.6713 83.1914C106.517 83.1914 122.012 98.6577 122.012 117.472C122.012 121.776 121.119 125.884 119.644 129.699L136.475 147.971C140.203 146.58 144.199 145.734 148.383 145.734C153.166 145.734 157.703 146.827 161.864 148.619L186.882 123.283L197.275 112.495L195.598 98.5479C195.893 90.1386 200.814 80.4931 206.183 74.6553V44.6709V0H189.804H173.425V14.0146V28.0293H159.386H145.347V14.0146V0H128.5H111.653V14.0146V28.0293H97.6143H83.5753V14.0146V0H67.1962H50.8172ZM74.1145 148.832L64.551 158.683C64.4144 159.539 64.3342 160.069 64.1959 160.935L56.0255 212.088H48.1808C40.5066 212.088 40.2656 212.157 37.1529 215.265L33.9706 218.44V237.221V256H128.5H223.029V237.221V218.44L219.847 215.265C216.734 212.157 216.493 212.088 208.819 212.088H200.974L192.804 160.935C192.523 159.174 192.356 158.076 192.082 156.354L180.478 168.106C181.876 171.833 182.724 175.83 182.724 180.015C182.724 198.829 167.229 214.295 148.383 214.295C129.537 214.295 114.043 198.828 114.043 180.015C114.043 175.229 115.138 170.687 116.941 166.526L100.807 149.013C96.7393 150.713 92.323 151.752 87.6713 151.752C82.8593 151.752 78.2967 150.645 74.1145 148.832Z" fill="#ECFAFF"/>
<path d="M231.424 72.2187C217.362 72.2187 205.849 83.7107 205.849 97.7489C205.849 103.039 207.486 107.967 210.276 112.055L163.479 159.447C159.24 156.333 154.017 154.484 148.383 154.484C143.24 154.484 138.44 156.027 134.418 158.664L109.165 131.25C111.742 127.268 113.247 122.538 113.247 117.472C113.247 103.434 101.734 91.9415 87.6713 91.9415C73.6087 91.9415 62.0967 103.434 62.0967 117.472C62.0967 122.45 63.5506 127.105 66.0466 131.044L39.3498 158.543C35.3659 155.981 30.6378 154.484 25.5746 154.484C11.512 154.484 0 165.976 0 180.015C0 194.053 11.512 205.545 25.5746 205.545C39.6372 205.545 51.1505 194.053 51.1505 180.015C51.1505 174.413 49.3131 169.219 46.2158 164.996L72.4645 137.959C76.7232 141.123 81.9879 143.002 87.6713 143.002C93.2634 143.002 98.4484 141.18 102.671 138.108L127.609 165.181C124.593 169.37 122.808 174.494 122.808 180.015C122.808 194.053 134.32 205.545 148.383 205.545C162.446 205.545 173.959 194.053 173.959 180.015C173.959 174.985 172.475 170.287 169.932 166.322L216.92 118.737C221.049 121.596 226.048 123.279 231.424 123.279C245.487 123.279 257 111.787 257 97.7489C257 83.7107 245.487 72.2187 231.424 72.2187ZM231.424 84.4488C238.911 84.4488 244.747 90.2748 244.747 97.7489C244.747 105.223 238.911 111.049 231.424 111.049C223.937 111.049 218.101 105.223 218.101 97.7489C218.101 90.2748 223.937 84.4488 231.424 84.4488ZM87.6713 104.172C95.1585 104.172 100.995 109.998 100.995 117.472C100.995 124.946 95.1585 130.772 87.6713 130.772C80.1842 130.772 74.348 124.946 74.348 117.472C74.348 109.998 80.1842 104.172 87.6713 104.172ZM25.5746 166.714C33.0618 166.714 38.8979 172.54 38.8979 180.015C38.8979 187.489 33.0618 193.315 25.5746 193.315C18.0875 193.315 12.2514 187.489 12.2514 180.015C12.2514 172.54 18.0875 166.714 25.5746 166.714ZM148.383 166.714C155.87 166.714 161.706 172.54 161.706 180.015C161.706 187.489 155.87 193.315 148.383 193.315C140.896 193.315 135.06 187.489 135.06 180.015C135.06 172.54 140.896 166.714 148.383 166.714Z" fill="url(#paint0_linear_2022_10)"/>
</g>
<defs>
<linearGradient id="paint0_linear_2022_10" x1="-5.00868e-09" y1="138.882" x2="257" y2="138.882" gradientUnits="userSpaceOnUse">
<stop stop-color="#4DD5E9"/>
<stop offset="0.880734" stop-color="#8ED3E8"/>
</linearGradient>
<clipPath id="clip0_2022_10">
<rect width="257" height="256" fill="white"/>
</clipPath>
</defs>
</svg>
